<mxfile host="app.diagrams.net" modified="2022-10-02T18:11:40.682Z" agent="5.0 (Windows NT 10.0; Win64; x64) AppleWebKit/537.36 (KHTML, like Gecko) Chrome/99.0.4844.82 Safari/537.36" etag="jNQ36JnjEw0ibuLHNErF" version="20.4.0" type="github" pages="3">
  <diagram id="1MXxQR1t4KhzLeFRlPVY" name="Page-1">
    <mxGraphModel dx="1038" dy="1716" grid="1" gridSize="10" guides="1" tooltips="1" connect="1" arrows="1" fold="1" page="1" pageScale="1" pageWidth="827" pageHeight="1169" math="0" shadow="0">
      <root>
        <mxCell id="0" />
        <mxCell id="1" parent="0" />
        <mxCell id="CyKZug_eMl7w6Z1lYdCM-4" value="Начало" style="ellipse;whiteSpace=wrap;html=1;" parent="1" vertex="1">
          <mxGeometry x="80" y="-1120" width="120" height="80" as="geometry" />
        </mxCell>
        <mxCell id="CyKZug_eMl7w6Z1lYdCM-5" value="" style="rounded=0;whiteSpace=wrap;html=1;" parent="1" vertex="1">
          <mxGeometry x="80" y="-1010" width="120" height="60" as="geometry" />
        </mxCell>
        <mxCell id="CyKZug_eMl7w6Z1lYdCM-8" value="" style="endArrow=none;html=1;rounded=0;exitX=0.5;exitY=0;exitDx=0;exitDy=0;entryX=0.5;entryY=1;entryDx=0;entryDy=0;" parent="1" source="CyKZug_eMl7w6Z1lYdCM-5" target="CyKZug_eMl7w6Z1lYdCM-4" edge="1">
          <mxGeometry width="50" height="50" relative="1" as="geometry">
            <mxPoint x="390" y="-940" as="sourcePoint" />
            <mxPoint x="440" y="-990" as="targetPoint" />
          </mxGeometry>
        </mxCell>
        <mxCell id="CyKZug_eMl7w6Z1lYdCM-10" value="matrix[10][10]" style="text;html=1;strokeColor=none;fillColor=none;align=center;verticalAlign=middle;whiteSpace=wrap;rounded=0;" parent="1" vertex="1">
          <mxGeometry x="100" y="-995" width="80" height="30" as="geometry" />
        </mxCell>
        <mxCell id="CyKZug_eMl7w6Z1lYdCM-11" value="" style="rounded=0;whiteSpace=wrap;html=1;" parent="1" vertex="1">
          <mxGeometry x="80" y="-920" width="120" height="60" as="geometry" />
        </mxCell>
        <mxCell id="CyKZug_eMl7w6Z1lYdCM-13" value="i=0" style="text;html=1;strokeColor=none;fillColor=none;align=center;verticalAlign=middle;whiteSpace=wrap;rounded=0;" parent="1" vertex="1">
          <mxGeometry x="110" y="-905" width="60" height="30" as="geometry" />
        </mxCell>
        <mxCell id="CyKZug_eMl7w6Z1lYdCM-14" value="" style="rounded=0;whiteSpace=wrap;html=1;" parent="1" vertex="1">
          <mxGeometry x="80" y="-750" width="120" height="60" as="geometry" />
        </mxCell>
        <mxCell id="CyKZug_eMl7w6Z1lYdCM-15" value="j=0" style="text;html=1;strokeColor=none;fillColor=none;align=center;verticalAlign=middle;whiteSpace=wrap;rounded=0;" parent="1" vertex="1">
          <mxGeometry x="110" y="-735" width="60" height="30" as="geometry" />
        </mxCell>
        <mxCell id="CyKZug_eMl7w6Z1lYdCM-16" value="i&amp;lt;10" style="rhombus;whiteSpace=wrap;html=1;" parent="1" vertex="1">
          <mxGeometry x="80" y="-830" width="120" height="60" as="geometry" />
        </mxCell>
        <mxCell id="CyKZug_eMl7w6Z1lYdCM-18" value="" style="endArrow=none;html=1;rounded=0;entryX=0.5;entryY=1;entryDx=0;entryDy=0;exitX=0.5;exitY=0;exitDx=0;exitDy=0;" parent="1" source="CyKZug_eMl7w6Z1lYdCM-14" target="CyKZug_eMl7w6Z1lYdCM-16" edge="1">
          <mxGeometry width="50" height="50" relative="1" as="geometry">
            <mxPoint x="390" y="-750" as="sourcePoint" />
            <mxPoint x="440" y="-800" as="targetPoint" />
          </mxGeometry>
        </mxCell>
        <mxCell id="CyKZug_eMl7w6Z1lYdCM-19" value="" style="endArrow=none;html=1;rounded=0;exitX=0.5;exitY=0;exitDx=0;exitDy=0;entryX=0.5;entryY=1;entryDx=0;entryDy=0;" parent="1" source="CyKZug_eMl7w6Z1lYdCM-16" target="CyKZug_eMl7w6Z1lYdCM-11" edge="1">
          <mxGeometry width="50" height="50" relative="1" as="geometry">
            <mxPoint x="390" y="-750" as="sourcePoint" />
            <mxPoint x="440" y="-800" as="targetPoint" />
          </mxGeometry>
        </mxCell>
        <mxCell id="CyKZug_eMl7w6Z1lYdCM-20" value="" style="endArrow=none;html=1;rounded=0;exitX=0.5;exitY=0;exitDx=0;exitDy=0;entryX=0.5;entryY=1;entryDx=0;entryDy=0;" parent="1" source="CyKZug_eMl7w6Z1lYdCM-11" target="CyKZug_eMl7w6Z1lYdCM-5" edge="1">
          <mxGeometry width="50" height="50" relative="1" as="geometry">
            <mxPoint x="390" y="-750" as="sourcePoint" />
            <mxPoint x="440" y="-800" as="targetPoint" />
          </mxGeometry>
        </mxCell>
        <mxCell id="CyKZug_eMl7w6Z1lYdCM-21" value="j&amp;lt;10" style="rhombus;whiteSpace=wrap;html=1;" parent="1" vertex="1">
          <mxGeometry x="80" y="-660" width="120" height="60" as="geometry" />
        </mxCell>
        <mxCell id="CyKZug_eMl7w6Z1lYdCM-22" value="matrix[i][j]" style="shape=parallelogram;perimeter=parallelogramPerimeter;whiteSpace=wrap;html=1;fixedSize=1;" parent="1" vertex="1">
          <mxGeometry x="80" y="-580" width="120" height="60" as="geometry" />
        </mxCell>
        <mxCell id="CyKZug_eMl7w6Z1lYdCM-34" style="edgeStyle=none;rounded=0;orthogonalLoop=1;jettySize=auto;html=1;exitX=0.5;exitY=1;exitDx=0;exitDy=0;" parent="1" source="CyKZug_eMl7w6Z1lYdCM-23" edge="1">
          <mxGeometry relative="1" as="geometry">
            <mxPoint x="140" y="-670" as="targetPoint" />
            <Array as="points">
              <mxPoint x="140" y="-390" />
              <mxPoint x="60" y="-390" />
              <mxPoint x="60" y="-670" />
            </Array>
          </mxGeometry>
        </mxCell>
        <mxCell id="CyKZug_eMl7w6Z1lYdCM-23" value="j=j+1" style="rounded=0;whiteSpace=wrap;html=1;" parent="1" vertex="1">
          <mxGeometry x="80" y="-490" width="120" height="60" as="geometry" />
        </mxCell>
        <mxCell id="CyKZug_eMl7w6Z1lYdCM-37" style="edgeStyle=none;rounded=0;orthogonalLoop=1;jettySize=auto;html=1;exitX=0.5;exitY=1;exitDx=0;exitDy=0;" parent="1" source="CyKZug_eMl7w6Z1lYdCM-24" edge="1">
          <mxGeometry relative="1" as="geometry">
            <mxPoint x="140" y="-840" as="targetPoint" />
            <Array as="points">
              <mxPoint x="280" y="-360" />
              <mxPoint x="30" y="-360" />
              <mxPoint x="30" y="-840" />
            </Array>
          </mxGeometry>
        </mxCell>
        <mxCell id="CyKZug_eMl7w6Z1lYdCM-24" value="i=i+1" style="rounded=0;whiteSpace=wrap;html=1;" parent="1" vertex="1">
          <mxGeometry x="220" y="-660" width="120" height="60" as="geometry" />
        </mxCell>
        <mxCell id="CyKZug_eMl7w6Z1lYdCM-28" value="" style="endArrow=none;html=1;rounded=0;exitX=0.5;exitY=1;exitDx=0;exitDy=0;entryX=0.5;entryY=0;entryDx=0;entryDy=0;" parent="1" source="CyKZug_eMl7w6Z1lYdCM-21" target="CyKZug_eMl7w6Z1lYdCM-22" edge="1">
          <mxGeometry width="50" height="50" relative="1" as="geometry">
            <mxPoint x="390" y="-510" as="sourcePoint" />
            <mxPoint x="440" y="-560" as="targetPoint" />
          </mxGeometry>
        </mxCell>
        <mxCell id="CyKZug_eMl7w6Z1lYdCM-30" value="" style="endArrow=none;html=1;rounded=0;exitX=0.5;exitY=1;exitDx=0;exitDy=0;entryX=0.5;entryY=0;entryDx=0;entryDy=0;" parent="1" source="CyKZug_eMl7w6Z1lYdCM-22" target="CyKZug_eMl7w6Z1lYdCM-23" edge="1">
          <mxGeometry width="50" height="50" relative="1" as="geometry">
            <mxPoint x="390" y="-510" as="sourcePoint" />
            <mxPoint x="440" y="-560" as="targetPoint" />
          </mxGeometry>
        </mxCell>
        <mxCell id="CyKZug_eMl7w6Z1lYdCM-35" value="" style="endArrow=none;html=1;rounded=0;exitX=0.5;exitY=0;exitDx=0;exitDy=0;entryX=0.5;entryY=1;entryDx=0;entryDy=0;" parent="1" source="CyKZug_eMl7w6Z1lYdCM-21" target="CyKZug_eMl7w6Z1lYdCM-14" edge="1">
          <mxGeometry width="50" height="50" relative="1" as="geometry">
            <mxPoint x="390" y="-510" as="sourcePoint" />
            <mxPoint x="440" y="-560" as="targetPoint" />
          </mxGeometry>
        </mxCell>
        <mxCell id="CyKZug_eMl7w6Z1lYdCM-36" value="" style="endArrow=none;html=1;rounded=0;exitX=1;exitY=0.5;exitDx=0;exitDy=0;entryX=0;entryY=0.5;entryDx=0;entryDy=0;" parent="1" source="CyKZug_eMl7w6Z1lYdCM-21" target="CyKZug_eMl7w6Z1lYdCM-24" edge="1">
          <mxGeometry width="50" height="50" relative="1" as="geometry">
            <mxPoint x="390" y="-610" as="sourcePoint" />
            <mxPoint x="440" y="-660" as="targetPoint" />
          </mxGeometry>
        </mxCell>
        <mxCell id="CyKZug_eMl7w6Z1lYdCM-38" value="" style="endArrow=none;html=1;rounded=0;exitX=1;exitY=0.5;exitDx=0;exitDy=0;entryX=0.5;entryY=0;entryDx=0;entryDy=0;" parent="1" source="CyKZug_eMl7w6Z1lYdCM-16" edge="1">
          <mxGeometry width="50" height="50" relative="1" as="geometry">
            <mxPoint x="390" y="-710" as="sourcePoint" />
            <mxPoint x="280" y="-760" as="targetPoint" />
            <Array as="points">
              <mxPoint x="280" y="-800" />
            </Array>
          </mxGeometry>
        </mxCell>
        <mxCell id="CyKZug_eMl7w6Z1lYdCM-41" value="&lt;font style=&quot;font-size: 11px;&quot;&gt;printMatrix(matrix)&lt;/font&gt;" style="shape=process;whiteSpace=wrap;html=1;backgroundOutline=1;fontSize=18;" parent="1" vertex="1">
          <mxGeometry x="530" y="-1040" width="160" height="60" as="geometry" />
        </mxCell>
        <mxCell id="CyKZug_eMl7w6Z1lYdCM-42" value="&amp;nbsp;diagonalsMinMax(matrix)" style="shape=process;whiteSpace=wrap;html=1;backgroundOutline=1;fontSize=11;" parent="1" vertex="1">
          <mxGeometry x="530" y="-940" width="160" height="60" as="geometry" />
        </mxCell>
        <mxCell id="CyKZug_eMl7w6Z1lYdCM-44" value="" style="endArrow=none;html=1;rounded=0;fontSize=11;exitX=0.5;exitY=1;exitDx=0;exitDy=0;entryX=0.5;entryY=0;entryDx=0;entryDy=0;" parent="1" target="CyKZug_eMl7w6Z1lYdCM-41" edge="1">
          <mxGeometry width="50" height="50" relative="1" as="geometry">
            <mxPoint x="610" y="-1070" as="sourcePoint" />
            <mxPoint x="550" y="-890" as="targetPoint" />
          </mxGeometry>
        </mxCell>
        <mxCell id="CyKZug_eMl7w6Z1lYdCM-45" value="" style="endArrow=none;html=1;rounded=0;fontSize=11;entryX=0.5;entryY=1;entryDx=0;entryDy=0;exitX=0.5;exitY=0;exitDx=0;exitDy=0;" parent="1" source="CyKZug_eMl7w6Z1lYdCM-42" target="CyKZug_eMl7w6Z1lYdCM-41" edge="1">
          <mxGeometry width="50" height="50" relative="1" as="geometry">
            <mxPoint x="500" y="-840" as="sourcePoint" />
            <mxPoint x="550" y="-890" as="targetPoint" />
          </mxGeometry>
        </mxCell>
        <mxCell id="CyKZug_eMl7w6Z1lYdCM-46" value="&lt;font style=&quot;font-size: 11px;&quot;&gt;Конец&lt;/font&gt;" style="ellipse;whiteSpace=wrap;html=1;fontSize=11;" parent="1" vertex="1">
          <mxGeometry x="530" y="-850" width="160" height="70" as="geometry" />
        </mxCell>
        <mxCell id="CyKZug_eMl7w6Z1lYdCM-47" value="" style="endArrow=none;html=1;rounded=0;fontSize=11;exitX=0.5;exitY=0;exitDx=0;exitDy=0;entryX=0.5;entryY=1;entryDx=0;entryDy=0;" parent="1" source="CyKZug_eMl7w6Z1lYdCM-46" target="CyKZug_eMl7w6Z1lYdCM-42" edge="1">
          <mxGeometry width="50" height="50" relative="1" as="geometry">
            <mxPoint x="500" y="-840" as="sourcePoint" />
            <mxPoint x="550" y="-890" as="targetPoint" />
          </mxGeometry>
        </mxCell>
        <mxCell id="tGJoKNRGr2ELQhd_dKFW-1" value="&lt;span style=&quot;font-size: 14px;&quot;&gt;1&lt;/span&gt;" style="text;html=1;strokeColor=none;fillColor=none;align=center;verticalAlign=middle;whiteSpace=wrap;rounded=0;fontSize=18;" parent="1" vertex="1">
          <mxGeometry x="60" y="-1140" width="60" height="30" as="geometry" />
        </mxCell>
        <mxCell id="tGJoKNRGr2ELQhd_dKFW-2" value="&lt;span style=&quot;color: rgb(0, 0, 0); font-family: Helvetica; font-size: 14px; font-style: normal; font-variant-ligatures: normal; font-variant-caps: normal; font-weight: 400; letter-spacing: normal; orphans: 2; text-align: center; text-indent: 0px; text-transform: none; widows: 2; word-spacing: 0px; -webkit-text-stroke-width: 0px; background-color: rgb(248, 249, 250); text-decoration-thickness: initial; text-decoration-style: initial; text-decoration-color: initial; float: none; display: inline !important;&quot;&gt;2&lt;/span&gt;" style="text;whiteSpace=wrap;html=1;fontSize=14;" parent="1" vertex="1">
          <mxGeometry x="80" y="-1035" width="40" height="40" as="geometry" />
        </mxCell>
        <mxCell id="tGJoKNRGr2ELQhd_dKFW-3" value="&lt;span style=&quot;color: rgb(0, 0, 0); font-family: Helvetica; font-size: 14px; font-style: normal; font-variant-ligatures: normal; font-variant-caps: normal; font-weight: 400; letter-spacing: normal; orphans: 2; text-align: center; text-indent: 0px; text-transform: none; widows: 2; word-spacing: 0px; -webkit-text-stroke-width: 0px; background-color: rgb(248, 249, 250); text-decoration-thickness: initial; text-decoration-style: initial; text-decoration-color: initial; float: none; display: inline !important;&quot;&gt;3&lt;/span&gt;" style="text;whiteSpace=wrap;html=1;fontSize=14;" parent="1" vertex="1">
          <mxGeometry x="80" y="-945" width="40" height="40" as="geometry" />
        </mxCell>
        <mxCell id="tGJoKNRGr2ELQhd_dKFW-4" value="&lt;span style=&quot;color: rgb(0, 0, 0); font-family: Helvetica; font-size: 14px; font-style: normal; font-variant-ligatures: normal; font-variant-caps: normal; font-weight: 400; letter-spacing: normal; orphans: 2; text-align: center; text-indent: 0px; text-transform: none; widows: 2; word-spacing: 0px; -webkit-text-stroke-width: 0px; background-color: rgb(248, 249, 250); text-decoration-thickness: initial; text-decoration-style: initial; text-decoration-color: initial; float: none; display: inline !important;&quot;&gt;4&lt;/span&gt;" style="text;whiteSpace=wrap;html=1;fontSize=14;" parent="1" vertex="1">
          <mxGeometry x="80" y="-830" width="40" height="40" as="geometry" />
        </mxCell>
        <mxCell id="tGJoKNRGr2ELQhd_dKFW-5" value="&lt;span style=&quot;color: rgb(0, 0, 0); font-family: Helvetica; font-size: 14px; font-style: normal; font-variant-ligatures: normal; font-variant-caps: normal; font-weight: 400; letter-spacing: normal; orphans: 2; text-align: center; text-indent: 0px; text-transform: none; widows: 2; word-spacing: 0px; -webkit-text-stroke-width: 0px; background-color: rgb(248, 249, 250); text-decoration-thickness: initial; text-decoration-style: initial; text-decoration-color: initial; float: none; display: inline !important;&quot;&gt;5&lt;/span&gt;" style="text;whiteSpace=wrap;html=1;fontSize=14;" parent="1" vertex="1">
          <mxGeometry x="80" y="-780" width="40" height="40" as="geometry" />
        </mxCell>
        <mxCell id="tGJoKNRGr2ELQhd_dKFW-6" value="&lt;span style=&quot;color: rgb(0, 0, 0); font-family: Helvetica; font-size: 14px; font-style: normal; font-variant-ligatures: normal; font-variant-caps: normal; font-weight: 400; letter-spacing: normal; orphans: 2; text-align: center; text-indent: 0px; text-transform: none; widows: 2; word-spacing: 0px; -webkit-text-stroke-width: 0px; background-color: rgb(248, 249, 250); text-decoration-thickness: initial; text-decoration-style: initial; text-decoration-color: initial; float: none; display: inline !important;&quot;&gt;6&lt;/span&gt;" style="text;whiteSpace=wrap;html=1;fontSize=14;" parent="1" vertex="1">
          <mxGeometry x="80" y="-660" width="40" height="40" as="geometry" />
        </mxCell>
        <mxCell id="tGJoKNRGr2ELQhd_dKFW-7" value="&lt;span style=&quot;color: rgb(0, 0, 0); font-family: Helvetica; font-size: 14px; font-style: normal; font-variant-ligatures: normal; font-variant-caps: normal; font-weight: 400; letter-spacing: normal; orphans: 2; text-align: center; text-indent: 0px; text-transform: none; widows: 2; word-spacing: 0px; -webkit-text-stroke-width: 0px; background-color: rgb(248, 249, 250); text-decoration-thickness: initial; text-decoration-style: initial; text-decoration-color: initial; float: none; display: inline !important;&quot;&gt;7&lt;/span&gt;" style="text;whiteSpace=wrap;html=1;fontSize=14;" parent="1" vertex="1">
          <mxGeometry x="80" y="-604" width="40" height="40" as="geometry" />
        </mxCell>
        <mxCell id="tGJoKNRGr2ELQhd_dKFW-8" value="&lt;span style=&quot;color: rgb(0, 0, 0); font-family: Helvetica; font-size: 14px; font-style: normal; font-variant-ligatures: normal; font-variant-caps: normal; font-weight: 400; letter-spacing: normal; orphans: 2; text-align: center; text-indent: 0px; text-transform: none; widows: 2; word-spacing: 0px; -webkit-text-stroke-width: 0px; background-color: rgb(248, 249, 250); text-decoration-thickness: initial; text-decoration-style: initial; text-decoration-color: initial; float: none; display: inline !important;&quot;&gt;8&lt;/span&gt;" style="text;whiteSpace=wrap;html=1;fontSize=14;" parent="1" vertex="1">
          <mxGeometry x="80" y="-520" width="40" height="40" as="geometry" />
        </mxCell>
        <mxCell id="tGJoKNRGr2ELQhd_dKFW-10" value="&lt;span style=&quot;color: rgb(0, 0, 0); font-family: Helvetica; font-size: 14px; font-style: normal; font-variant-ligatures: normal; font-variant-caps: normal; font-weight: 400; letter-spacing: normal; orphans: 2; text-align: center; text-indent: 0px; text-transform: none; widows: 2; word-spacing: 0px; -webkit-text-stroke-width: 0px; background-color: rgb(248, 249, 250); text-decoration-thickness: initial; text-decoration-style: initial; text-decoration-color: initial; float: none; display: inline !important;&quot;&gt;9&lt;/span&gt;" style="text;whiteSpace=wrap;html=1;fontSize=14;" parent="1" vertex="1">
          <mxGeometry x="220" y="-690" width="40" height="40" as="geometry" />
        </mxCell>
        <mxCell id="tGJoKNRGr2ELQhd_dKFW-13" value="&lt;span style=&quot;color: rgb(0, 0, 0); font-family: Helvetica; font-size: 14px; font-style: normal; font-variant-ligatures: normal; font-variant-caps: normal; font-weight: 400; letter-spacing: normal; orphans: 2; text-align: center; text-indent: 0px; text-transform: none; widows: 2; word-spacing: 0px; -webkit-text-stroke-width: 0px; background-color: rgb(248, 249, 250); text-decoration-thickness: initial; text-decoration-style: initial; text-decoration-color: initial; float: none; display: inline !important;&quot;&gt;12&lt;/span&gt;" style="text;whiteSpace=wrap;html=1;fontSize=14;" parent="1" vertex="1">
          <mxGeometry x="530" y="-860" width="40" height="40" as="geometry" />
        </mxCell>
        <mxCell id="ByIY474zOrlTt50xJc5P-1" value="&lt;font style=&quot;font-size: 18px;&quot;&gt;A&lt;/font&gt;" style="ellipse;whiteSpace=wrap;html=1;aspect=fixed;" parent="1" vertex="1">
          <mxGeometry x="255" y="-760" width="50" height="50" as="geometry" />
        </mxCell>
        <mxCell id="ByIY474zOrlTt50xJc5P-2" value="&lt;font style=&quot;font-size: 18px;&quot;&gt;A&lt;/font&gt;" style="ellipse;whiteSpace=wrap;html=1;aspect=fixed;" parent="1" vertex="1">
          <mxGeometry x="585" y="-1120" width="50" height="50" as="geometry" />
        </mxCell>
        <mxCell id="nHeTDezRMS8V3iF8tW6m-2" value="" style="endArrow=none;dashed=1;html=1;rounded=0;exitX=1;exitY=0.5;exitDx=0;exitDy=0;entryX=0;entryY=0.5;entryDx=0;entryDy=0;entryPerimeter=0;" parent="1" source="CyKZug_eMl7w6Z1lYdCM-11" target="nHeTDezRMS8V3iF8tW6m-3" edge="1">
          <mxGeometry width="50" height="50" relative="1" as="geometry">
            <mxPoint x="420" y="-760" as="sourcePoint" />
            <mxPoint x="260" y="-890" as="targetPoint" />
          </mxGeometry>
        </mxCell>
        <mxCell id="nHeTDezRMS8V3iF8tW6m-3" value="" style="strokeWidth=2;html=1;shape=mxgraph.flowchart.annotation_1;align=left;pointerEvents=1;" parent="1" vertex="1">
          <mxGeometry x="350" y="-912.5" width="10" height="45" as="geometry" />
        </mxCell>
        <mxCell id="nHeTDezRMS8V3iF8tW6m-12" value="переменная для итерации строк в матрице" style="text;html=1;strokeColor=none;fillColor=none;align=center;verticalAlign=middle;whiteSpace=wrap;rounded=0;" parent="1" vertex="1">
          <mxGeometry x="350" y="-905" width="170" height="30" as="geometry" />
        </mxCell>
        <mxCell id="nHeTDezRMS8V3iF8tW6m-13" value="" style="endArrow=none;dashed=1;html=1;rounded=0;entryX=0;entryY=0.5;entryDx=0;entryDy=0;entryPerimeter=0;" parent="1" target="nHeTDezRMS8V3iF8tW6m-14" edge="1">
          <mxGeometry width="50" height="50" relative="1" as="geometry">
            <mxPoint x="200" y="-720" as="sourcePoint" />
            <mxPoint x="255" y="-720" as="targetPoint" />
            <Array as="points">
              <mxPoint x="240" y="-720" />
              <mxPoint x="240" y="-700" />
              <mxPoint x="300" y="-700" />
              <mxPoint x="320" y="-700" />
              <mxPoint x="320" y="-720" />
            </Array>
          </mxGeometry>
        </mxCell>
        <mxCell id="nHeTDezRMS8V3iF8tW6m-14" value="" style="strokeWidth=2;html=1;shape=mxgraph.flowchart.annotation_1;align=left;pointerEvents=1;" parent="1" vertex="1">
          <mxGeometry x="345" y="-742.5" width="10" height="45" as="geometry" />
        </mxCell>
        <mxCell id="nHeTDezRMS8V3iF8tW6m-15" value="переменная для итерации столбцов в матрице" style="text;html=1;strokeColor=none;fillColor=none;align=center;verticalAlign=middle;whiteSpace=wrap;rounded=0;" parent="1" vertex="1">
          <mxGeometry x="345" y="-735" width="170" height="30" as="geometry" />
        </mxCell>
        <mxCell id="nHeTDezRMS8V3iF8tW6m-16" value="" style="endArrow=none;dashed=1;html=1;rounded=0;exitX=1;exitY=0.5;exitDx=0;exitDy=0;entryX=0;entryY=0.5;entryDx=0;entryDy=0;entryPerimeter=0;" parent="1" target="nHeTDezRMS8V3iF8tW6m-17" edge="1">
          <mxGeometry width="50" height="50" relative="1" as="geometry">
            <mxPoint x="190" y="-550" as="sourcePoint" />
            <mxPoint x="250" y="-550" as="targetPoint" />
          </mxGeometry>
        </mxCell>
        <mxCell id="nHeTDezRMS8V3iF8tW6m-17" value="" style="strokeWidth=2;html=1;shape=mxgraph.flowchart.annotation_1;align=left;pointerEvents=1;" parent="1" vertex="1">
          <mxGeometry x="340" y="-572.5" width="10" height="45" as="geometry" />
        </mxCell>
        <mxCell id="nHeTDezRMS8V3iF8tW6m-18" value="ввод элемента матрицы" style="text;html=1;strokeColor=none;fillColor=none;align=center;verticalAlign=middle;whiteSpace=wrap;rounded=0;" parent="1" vertex="1">
          <mxGeometry x="340" y="-565" width="170" height="30" as="geometry" />
        </mxCell>
        <mxCell id="jr9emD0vOBB2vC03-i4O-1" value="&lt;span style=&quot;color: rgb(0, 0, 0); font-family: Helvetica; font-size: 14px; font-style: normal; font-variant-ligatures: normal; font-variant-caps: normal; font-weight: 400; letter-spacing: normal; orphans: 2; text-align: center; text-indent: 0px; text-transform: none; widows: 2; word-spacing: 0px; -webkit-text-stroke-width: 0px; background-color: rgb(248, 249, 250); text-decoration-thickness: initial; text-decoration-style: initial; text-decoration-color: initial; float: none; display: inline !important;&quot;&gt;10&lt;/span&gt;" style="text;whiteSpace=wrap;html=1;fontSize=14;" vertex="1" parent="1">
          <mxGeometry x="530" y="-1070" width="40" height="40" as="geometry" />
        </mxCell>
        <mxCell id="jr9emD0vOBB2vC03-i4O-2" value="&lt;span style=&quot;color: rgb(0, 0, 0); font-family: Helvetica; font-size: 14px; font-style: normal; font-variant-ligatures: normal; font-variant-caps: normal; font-weight: 400; letter-spacing: normal; orphans: 2; text-align: center; text-indent: 0px; text-transform: none; widows: 2; word-spacing: 0px; -webkit-text-stroke-width: 0px; background-color: rgb(248, 249, 250); text-decoration-thickness: initial; text-decoration-style: initial; text-decoration-color: initial; float: none; display: inline !important;&quot;&gt;11&lt;/span&gt;" style="text;whiteSpace=wrap;html=1;fontSize=14;" vertex="1" parent="1">
          <mxGeometry x="530" y="-965" width="40" height="40" as="geometry" />
        </mxCell>
      </root>
    </mxGraphModel>
  </diagram>
  <diagram id="YRttyqy2Ba4MNuOloOUo" name="Page-2">
    <mxGraphModel dx="1038" dy="1716" grid="1" gridSize="10" guides="1" tooltips="1" connect="1" arrows="1" fold="1" page="1" pageScale="1" pageWidth="827" pageHeight="1169" math="0" shadow="0">
      <root>
        <mxCell id="0" />
        <mxCell id="1" parent="0" />
        <mxCell id="Y5o_uo8ENSqjdG4YeVco-1" value="" style="rounded=0;whiteSpace=wrap;html=1;" parent="1" vertex="1">
          <mxGeometry x="240" y="-920" width="160" height="60" as="geometry" />
        </mxCell>
        <mxCell id="Y5o_uo8ENSqjdG4YeVco-2" value="i=0" style="text;html=1;strokeColor=none;fillColor=none;align=center;verticalAlign=middle;whiteSpace=wrap;rounded=0;" parent="1" vertex="1">
          <mxGeometry x="290" y="-905" width="60" height="30" as="geometry" />
        </mxCell>
        <mxCell id="Y5o_uo8ENSqjdG4YeVco-3" value="" style="rounded=0;whiteSpace=wrap;html=1;" parent="1" vertex="1">
          <mxGeometry x="240" y="-740" width="160" height="60" as="geometry" />
        </mxCell>
        <mxCell id="Y5o_uo8ENSqjdG4YeVco-4" value="j=0" style="text;html=1;strokeColor=none;fillColor=none;align=center;verticalAlign=middle;whiteSpace=wrap;rounded=0;" parent="1" vertex="1">
          <mxGeometry x="290" y="-715" width="60" height="30" as="geometry" />
        </mxCell>
        <mxCell id="Y5o_uo8ENSqjdG4YeVco-5" value="i&amp;lt;10" style="rhombus;whiteSpace=wrap;html=1;" parent="1" vertex="1">
          <mxGeometry x="240" y="-820" width="160" height="60" as="geometry" />
        </mxCell>
        <mxCell id="Y5o_uo8ENSqjdG4YeVco-6" value="" style="endArrow=none;html=1;rounded=0;entryX=0.5;entryY=1;entryDx=0;entryDy=0;exitX=0.5;exitY=0;exitDx=0;exitDy=0;" parent="1" source="Y5o_uo8ENSqjdG4YeVco-3" target="Y5o_uo8ENSqjdG4YeVco-5" edge="1">
          <mxGeometry width="50" height="50" relative="1" as="geometry">
            <mxPoint x="570" y="-740" as="sourcePoint" />
            <mxPoint x="620" y="-790" as="targetPoint" />
          </mxGeometry>
        </mxCell>
        <mxCell id="Y5o_uo8ENSqjdG4YeVco-7" value="" style="endArrow=none;html=1;rounded=0;exitX=0.5;exitY=0;exitDx=0;exitDy=0;entryX=0.5;entryY=1;entryDx=0;entryDy=0;" parent="1" source="Y5o_uo8ENSqjdG4YeVco-5" target="Y5o_uo8ENSqjdG4YeVco-1" edge="1">
          <mxGeometry width="50" height="50" relative="1" as="geometry">
            <mxPoint x="570" y="-740" as="sourcePoint" />
            <mxPoint x="620" y="-790" as="targetPoint" />
          </mxGeometry>
        </mxCell>
        <mxCell id="Y5o_uo8ENSqjdG4YeVco-8" value="j&amp;lt;10" style="rhombus;whiteSpace=wrap;html=1;" parent="1" vertex="1">
          <mxGeometry x="240" y="-650" width="160" height="60" as="geometry" />
        </mxCell>
        <mxCell id="Y5o_uo8ENSqjdG4YeVco-9" value="matrix[i][j]" style="shape=parallelogram;perimeter=parallelogramPerimeter;whiteSpace=wrap;html=1;fixedSize=1;" parent="1" vertex="1">
          <mxGeometry x="240" y="-570" width="160" height="60" as="geometry" />
        </mxCell>
        <mxCell id="Y5o_uo8ENSqjdG4YeVco-10" style="edgeStyle=none;rounded=0;orthogonalLoop=1;jettySize=auto;html=1;exitX=0.5;exitY=1;exitDx=0;exitDy=0;" parent="1" source="Y5o_uo8ENSqjdG4YeVco-11" edge="1">
          <mxGeometry relative="1" as="geometry">
            <mxPoint x="320" y="-660" as="targetPoint" />
            <Array as="points">
              <mxPoint x="320" y="-390" />
              <mxPoint x="220" y="-390" />
              <mxPoint x="220" y="-660" />
            </Array>
          </mxGeometry>
        </mxCell>
        <mxCell id="Y5o_uo8ENSqjdG4YeVco-11" value="j=j+1" style="rounded=0;whiteSpace=wrap;html=1;" parent="1" vertex="1">
          <mxGeometry x="240" y="-480" width="160" height="60" as="geometry" />
        </mxCell>
        <mxCell id="Y5o_uo8ENSqjdG4YeVco-12" style="edgeStyle=none;rounded=0;orthogonalLoop=1;jettySize=auto;html=1;exitX=0.5;exitY=1;exitDx=0;exitDy=0;" parent="1" source="Y5o_uo8ENSqjdG4YeVco-13" edge="1">
          <mxGeometry relative="1" as="geometry">
            <mxPoint x="320" y="-830" as="targetPoint" />
            <Array as="points">
              <mxPoint x="500" y="-370" />
              <mxPoint x="200" y="-370" />
              <mxPoint x="200" y="-830" />
            </Array>
          </mxGeometry>
        </mxCell>
        <mxCell id="Y5o_uo8ENSqjdG4YeVco-13" value="i=i+1" style="rounded=0;whiteSpace=wrap;html=1;" parent="1" vertex="1">
          <mxGeometry x="420" y="-650" width="160" height="60" as="geometry" />
        </mxCell>
        <mxCell id="Y5o_uo8ENSqjdG4YeVco-14" value="" style="endArrow=none;html=1;rounded=0;exitX=0.5;exitY=1;exitDx=0;exitDy=0;entryX=0.5;entryY=0;entryDx=0;entryDy=0;" parent="1" source="Y5o_uo8ENSqjdG4YeVco-8" target="Y5o_uo8ENSqjdG4YeVco-9" edge="1">
          <mxGeometry width="50" height="50" relative="1" as="geometry">
            <mxPoint x="570" y="-500" as="sourcePoint" />
            <mxPoint x="620" y="-550" as="targetPoint" />
          </mxGeometry>
        </mxCell>
        <mxCell id="Y5o_uo8ENSqjdG4YeVco-15" value="" style="endArrow=none;html=1;rounded=0;exitX=0.5;exitY=1;exitDx=0;exitDy=0;entryX=0.5;entryY=0;entryDx=0;entryDy=0;" parent="1" source="Y5o_uo8ENSqjdG4YeVco-9" target="Y5o_uo8ENSqjdG4YeVco-11" edge="1">
          <mxGeometry width="50" height="50" relative="1" as="geometry">
            <mxPoint x="570" y="-500" as="sourcePoint" />
            <mxPoint x="620" y="-550" as="targetPoint" />
          </mxGeometry>
        </mxCell>
        <mxCell id="Y5o_uo8ENSqjdG4YeVco-16" value="" style="endArrow=none;html=1;rounded=0;exitX=0.5;exitY=0;exitDx=0;exitDy=0;entryX=0.5;entryY=1;entryDx=0;entryDy=0;" parent="1" source="Y5o_uo8ENSqjdG4YeVco-8" target="Y5o_uo8ENSqjdG4YeVco-3" edge="1">
          <mxGeometry width="50" height="50" relative="1" as="geometry">
            <mxPoint x="570" y="-500" as="sourcePoint" />
            <mxPoint x="620" y="-550" as="targetPoint" />
          </mxGeometry>
        </mxCell>
        <mxCell id="Y5o_uo8ENSqjdG4YeVco-17" value="" style="endArrow=none;html=1;rounded=0;exitX=1;exitY=0.5;exitDx=0;exitDy=0;entryX=0;entryY=0.5;entryDx=0;entryDy=0;" parent="1" source="Y5o_uo8ENSqjdG4YeVco-8" target="Y5o_uo8ENSqjdG4YeVco-13" edge="1">
          <mxGeometry width="50" height="50" relative="1" as="geometry">
            <mxPoint x="570" y="-600" as="sourcePoint" />
            <mxPoint x="620" y="-650" as="targetPoint" />
          </mxGeometry>
        </mxCell>
        <mxCell id="Y5o_uo8ENSqjdG4YeVco-18" value="" style="endArrow=none;html=1;rounded=0;exitX=1;exitY=0.5;exitDx=0;exitDy=0;" parent="1" source="Y5o_uo8ENSqjdG4YeVco-5" edge="1">
          <mxGeometry width="50" height="50" relative="1" as="geometry">
            <mxPoint x="570" y="-700" as="sourcePoint" />
            <mxPoint x="500" y="-760" as="targetPoint" />
            <Array as="points">
              <mxPoint x="500" y="-790" />
            </Array>
          </mxGeometry>
        </mxCell>
        <mxCell id="Mac2xJaLCtgPkS7XNPWy-1" value="printMatrix(int matrix[10][10])" style="ellipse;whiteSpace=wrap;html=1;fontSize=11;" parent="1" vertex="1">
          <mxGeometry x="240" y="-1010" width="160" height="70" as="geometry" />
        </mxCell>
        <mxCell id="Mac2xJaLCtgPkS7XNPWy-3" value="Конец" style="ellipse;whiteSpace=wrap;html=1;fontSize=11;" parent="1" vertex="1">
          <mxGeometry x="420" y="-760" width="160" height="70" as="geometry" />
        </mxCell>
        <mxCell id="Mac2xJaLCtgPkS7XNPWy-4" value="" style="endArrow=none;html=1;rounded=0;fontSize=11;entryX=0.5;entryY=1;entryDx=0;entryDy=0;exitX=0.5;exitY=0;exitDx=0;exitDy=0;" parent="1" source="Y5o_uo8ENSqjdG4YeVco-1" target="Mac2xJaLCtgPkS7XNPWy-1" edge="1">
          <mxGeometry width="50" height="50" relative="1" as="geometry">
            <mxPoint x="90" y="-900" as="sourcePoint" />
            <mxPoint x="140" y="-950" as="targetPoint" />
          </mxGeometry>
        </mxCell>
        <mxCell id="3DoI-zRPFKKXqYBMyMtr-1" value="&lt;div style=&quot;text-align: center;&quot;&gt;&lt;span style=&quot;background-color: initial;&quot;&gt;13&lt;/span&gt;&lt;/div&gt;" style="text;whiteSpace=wrap;html=1;fontSize=14;" parent="1" vertex="1">
          <mxGeometry x="240" y="-945" width="80" height="40" as="geometry" />
        </mxCell>
        <mxCell id="lsn80cibgsQnazsczWAg-1" value="&lt;div style=&quot;text-align: center;&quot;&gt;14&lt;/div&gt;" style="text;whiteSpace=wrap;html=1;fontSize=14;" parent="1" vertex="1">
          <mxGeometry x="240" y="-820" width="40" height="40" as="geometry" />
        </mxCell>
        <mxCell id="lsn80cibgsQnazsczWAg-2" value="&lt;div style=&quot;text-align: center;&quot;&gt;15&lt;/div&gt;" style="text;whiteSpace=wrap;html=1;fontSize=14;" parent="1" vertex="1">
          <mxGeometry x="240" y="-770" width="40" height="40" as="geometry" />
        </mxCell>
        <mxCell id="lsn80cibgsQnazsczWAg-3" value="&lt;span style=&quot;color: rgb(0, 0, 0); font-family: Helvetica; font-size: 14px; font-style: normal; font-variant-ligatures: normal; font-variant-caps: normal; font-weight: 400; letter-spacing: normal; orphans: 2; text-align: center; text-indent: 0px; text-transform: none; widows: 2; word-spacing: 0px; -webkit-text-stroke-width: 0px; background-color: rgb(248, 249, 250); text-decoration-thickness: initial; text-decoration-style: initial; text-decoration-color: initial; float: none; display: inline !important;&quot;&gt;16&lt;/span&gt;" style="text;whiteSpace=wrap;html=1;fontSize=14;" parent="1" vertex="1">
          <mxGeometry x="240" y="-650" width="40" height="40" as="geometry" />
        </mxCell>
        <mxCell id="lsn80cibgsQnazsczWAg-4" value="&lt;span style=&quot;color: rgb(0, 0, 0); font-family: Helvetica; font-size: 14px; font-style: normal; font-variant-ligatures: normal; font-variant-caps: normal; font-weight: 400; letter-spacing: normal; orphans: 2; text-align: center; text-indent: 0px; text-transform: none; widows: 2; word-spacing: 0px; -webkit-text-stroke-width: 0px; background-color: rgb(248, 249, 250); text-decoration-thickness: initial; text-decoration-style: initial; text-decoration-color: initial; float: none; display: inline !important;&quot;&gt;17&lt;/span&gt;" style="text;whiteSpace=wrap;html=1;fontSize=14;" parent="1" vertex="1">
          <mxGeometry x="240" y="-590" width="40" height="40" as="geometry" />
        </mxCell>
        <mxCell id="lsn80cibgsQnazsczWAg-5" value="&lt;span style=&quot;color: rgb(0, 0, 0); font-family: Helvetica; font-size: 14px; font-style: normal; font-variant-ligatures: normal; font-variant-caps: normal; font-weight: 400; letter-spacing: normal; orphans: 2; text-align: center; text-indent: 0px; text-transform: none; widows: 2; word-spacing: 0px; -webkit-text-stroke-width: 0px; background-color: rgb(248, 249, 250); text-decoration-thickness: initial; text-decoration-style: initial; text-decoration-color: initial; float: none; display: inline !important;&quot;&gt;18&lt;/span&gt;" style="text;whiteSpace=wrap;html=1;fontSize=14;" parent="1" vertex="1">
          <mxGeometry x="240" y="-510" width="40" height="40" as="geometry" />
        </mxCell>
        <mxCell id="lsn80cibgsQnazsczWAg-6" value="&lt;span style=&quot;color: rgb(0, 0, 0); font-family: Helvetica; font-size: 14px; font-style: normal; font-variant-ligatures: normal; font-variant-caps: normal; font-weight: 400; letter-spacing: normal; orphans: 2; text-align: center; text-indent: 0px; text-transform: none; widows: 2; word-spacing: 0px; -webkit-text-stroke-width: 0px; background-color: rgb(248, 249, 250); text-decoration-thickness: initial; text-decoration-style: initial; text-decoration-color: initial; float: none; display: inline !important;&quot;&gt;19&lt;/span&gt;" style="text;whiteSpace=wrap;html=1;fontSize=14;" parent="1" vertex="1">
          <mxGeometry x="414" y="-680" width="40" height="40" as="geometry" />
        </mxCell>
        <mxCell id="I8PY12wyaOGjxZVTbugy-1" value="" style="endArrow=none;dashed=1;html=1;rounded=0;exitX=1;exitY=0.5;exitDx=0;exitDy=0;entryX=0;entryY=0.5;entryDx=0;entryDy=0;entryPerimeter=0;" parent="1" target="I8PY12wyaOGjxZVTbugy-2" edge="1">
          <mxGeometry width="50" height="50" relative="1" as="geometry">
            <mxPoint x="390" y="-540" as="sourcePoint" />
            <mxPoint x="450" y="-540" as="targetPoint" />
          </mxGeometry>
        </mxCell>
        <mxCell id="I8PY12wyaOGjxZVTbugy-2" value="" style="strokeWidth=2;html=1;shape=mxgraph.flowchart.annotation_1;align=left;pointerEvents=1;" parent="1" vertex="1">
          <mxGeometry x="510" y="-562.5" width="10" height="45" as="geometry" />
        </mxCell>
        <mxCell id="I8PY12wyaOGjxZVTbugy-3" value="вывод элемента матрицы" style="text;html=1;strokeColor=none;fillColor=none;align=center;verticalAlign=middle;whiteSpace=wrap;rounded=0;" parent="1" vertex="1">
          <mxGeometry x="510" y="-555" width="170" height="30" as="geometry" />
        </mxCell>
        <mxCell id="I8PY12wyaOGjxZVTbugy-4" value="" style="endArrow=none;dashed=1;html=1;rounded=0;exitX=1;exitY=0.5;exitDx=0;exitDy=0;entryX=0;entryY=0.5;entryDx=0;entryDy=0;entryPerimeter=0;" parent="1" target="I8PY12wyaOGjxZVTbugy-5" edge="1">
          <mxGeometry width="50" height="50" relative="1" as="geometry">
            <mxPoint x="400" y="-977.5" as="sourcePoint" />
            <mxPoint x="460" y="-977.5" as="targetPoint" />
          </mxGeometry>
        </mxCell>
        <mxCell id="I8PY12wyaOGjxZVTbugy-5" value="" style="strokeWidth=2;html=1;shape=mxgraph.flowchart.annotation_1;align=left;pointerEvents=1;" parent="1" vertex="1">
          <mxGeometry x="440" y="-1000" width="10" height="45" as="geometry" />
        </mxCell>
        <mxCell id="I8PY12wyaOGjxZVTbugy-6" value="функция вывода массива" style="text;html=1;strokeColor=none;fillColor=none;align=center;verticalAlign=middle;whiteSpace=wrap;rounded=0;" parent="1" vertex="1">
          <mxGeometry x="440" y="-992.5" width="170" height="30" as="geometry" />
        </mxCell>
      </root>
    </mxGraphModel>
  </diagram>
  <diagram id="dBgsFoUH9Z-WMiMNJNLW" name="Page-3">
    <mxGraphModel dx="1038" dy="1716" grid="1" gridSize="10" guides="1" tooltips="1" connect="1" arrows="1" fold="1" page="1" pageScale="1" pageWidth="827" pageHeight="1169" math="0" shadow="0">
      <root>
        <mxCell id="0" />
        <mxCell id="1" parent="0" />
        <mxCell id="2hTFmVIW4Jd26uyD2nNo-1" value="" style="rounded=0;whiteSpace=wrap;html=1;" parent="1" vertex="1">
          <mxGeometry x="240" y="80" width="160" height="60" as="geometry" />
        </mxCell>
        <mxCell id="2hTFmVIW4Jd26uyD2nNo-2" value="i=1" style="text;html=1;strokeColor=none;fillColor=none;align=center;verticalAlign=middle;whiteSpace=wrap;rounded=0;" parent="1" vertex="1">
          <mxGeometry x="290" y="95" width="60" height="30" as="geometry" />
        </mxCell>
        <mxCell id="2hTFmVIW4Jd26uyD2nNo-3" value="" style="rounded=0;whiteSpace=wrap;html=1;" parent="1" vertex="1">
          <mxGeometry x="240" y="260" width="160" height="60" as="geometry" />
        </mxCell>
        <mxCell id="2hTFmVIW4Jd26uyD2nNo-4" value="j=1" style="text;html=1;strokeColor=none;fillColor=none;align=center;verticalAlign=middle;whiteSpace=wrap;rounded=0;" parent="1" vertex="1">
          <mxGeometry x="290" y="285" width="60" height="30" as="geometry" />
        </mxCell>
        <mxCell id="2hTFmVIW4Jd26uyD2nNo-5" value="i&amp;lt;n" style="rhombus;whiteSpace=wrap;html=1;" parent="1" vertex="1">
          <mxGeometry x="240" y="180" width="160" height="60" as="geometry" />
        </mxCell>
        <mxCell id="2hTFmVIW4Jd26uyD2nNo-6" value="" style="endArrow=none;html=1;rounded=0;entryX=0.5;entryY=1;entryDx=0;entryDy=0;exitX=0.5;exitY=0;exitDx=0;exitDy=0;" parent="1" source="2hTFmVIW4Jd26uyD2nNo-3" target="2hTFmVIW4Jd26uyD2nNo-5" edge="1">
          <mxGeometry width="50" height="50" relative="1" as="geometry">
            <mxPoint x="570" y="260" as="sourcePoint" />
            <mxPoint x="620" y="210" as="targetPoint" />
          </mxGeometry>
        </mxCell>
        <mxCell id="2hTFmVIW4Jd26uyD2nNo-7" value="" style="endArrow=none;html=1;rounded=0;exitX=0.5;exitY=0;exitDx=0;exitDy=0;entryX=0.5;entryY=1;entryDx=0;entryDy=0;" parent="1" source="2hTFmVIW4Jd26uyD2nNo-5" target="2hTFmVIW4Jd26uyD2nNo-1" edge="1">
          <mxGeometry width="50" height="50" relative="1" as="geometry">
            <mxPoint x="570" y="260" as="sourcePoint" />
            <mxPoint x="620" y="210" as="targetPoint" />
          </mxGeometry>
        </mxCell>
        <mxCell id="2hTFmVIW4Jd26uyD2nNo-8" value="j&amp;lt;n" style="rhombus;whiteSpace=wrap;html=1;" parent="1" vertex="1">
          <mxGeometry x="240" y="350" width="160" height="60" as="geometry" />
        </mxCell>
        <mxCell id="2hTFmVIW4Jd26uyD2nNo-10" style="edgeStyle=none;rounded=0;orthogonalLoop=1;jettySize=auto;html=1;exitX=0.5;exitY=1;exitDx=0;exitDy=0;" parent="1" source="2hTFmVIW4Jd26uyD2nNo-11" edge="1">
          <mxGeometry relative="1" as="geometry">
            <mxPoint x="320" y="340" as="targetPoint" />
            <Array as="points">
              <mxPoint x="320" y="1440" />
              <mxPoint x="220" y="1440" />
              <mxPoint x="220" y="340" />
            </Array>
          </mxGeometry>
        </mxCell>
        <mxCell id="2hTFmVIW4Jd26uyD2nNo-11" value="j=j+1" style="rounded=0;whiteSpace=wrap;html=1;" parent="1" vertex="1">
          <mxGeometry x="240" y="1360" width="160" height="60" as="geometry" />
        </mxCell>
        <mxCell id="2hTFmVIW4Jd26uyD2nNo-12" style="edgeStyle=none;rounded=0;orthogonalLoop=1;jettySize=auto;html=1;exitX=0.5;exitY=1;exitDx=0;exitDy=0;" parent="1" source="2hTFmVIW4Jd26uyD2nNo-13" edge="1">
          <mxGeometry relative="1" as="geometry">
            <mxPoint x="320" y="170" as="targetPoint" />
            <Array as="points">
              <mxPoint x="500" y="1460" />
              <mxPoint x="350" y="1460" />
              <mxPoint x="200" y="1460" />
              <mxPoint x="200" y="170" />
            </Array>
          </mxGeometry>
        </mxCell>
        <mxCell id="2hTFmVIW4Jd26uyD2nNo-13" value="i=i+1" style="rounded=0;whiteSpace=wrap;html=1;" parent="1" vertex="1">
          <mxGeometry x="420" y="350" width="160" height="60" as="geometry" />
        </mxCell>
        <mxCell id="2hTFmVIW4Jd26uyD2nNo-14" value="" style="endArrow=none;html=1;rounded=0;exitX=0.5;exitY=1;exitDx=0;exitDy=0;entryX=0.5;entryY=0;entryDx=0;entryDy=0;" parent="1" source="2hTFmVIW4Jd26uyD2nNo-8" target="b7NBwk-AkZfB3AFS1rDW-1" edge="1">
          <mxGeometry width="50" height="50" relative="1" as="geometry">
            <mxPoint x="570" y="500" as="sourcePoint" />
            <mxPoint x="320" y="430" as="targetPoint" />
          </mxGeometry>
        </mxCell>
        <mxCell id="2hTFmVIW4Jd26uyD2nNo-15" value="" style="endArrow=none;html=1;rounded=0;exitX=0.5;exitY=1;exitDx=0;exitDy=0;entryX=0.5;entryY=0;entryDx=0;entryDy=0;" parent="1" target="2hTFmVIW4Jd26uyD2nNo-11" edge="1">
          <mxGeometry width="50" height="50" relative="1" as="geometry">
            <mxPoint x="320" y="490" as="sourcePoint" />
            <mxPoint x="620" y="450" as="targetPoint" />
          </mxGeometry>
        </mxCell>
        <mxCell id="2hTFmVIW4Jd26uyD2nNo-16" value="" style="endArrow=none;html=1;rounded=0;exitX=0.5;exitY=0;exitDx=0;exitDy=0;entryX=0.5;entryY=1;entryDx=0;entryDy=0;" parent="1" source="2hTFmVIW4Jd26uyD2nNo-8" target="2hTFmVIW4Jd26uyD2nNo-3" edge="1">
          <mxGeometry width="50" height="50" relative="1" as="geometry">
            <mxPoint x="570" y="500" as="sourcePoint" />
            <mxPoint x="620" y="450" as="targetPoint" />
          </mxGeometry>
        </mxCell>
        <mxCell id="2hTFmVIW4Jd26uyD2nNo-17" value="" style="endArrow=none;html=1;rounded=0;exitX=1;exitY=0.5;exitDx=0;exitDy=0;entryX=0;entryY=0.5;entryDx=0;entryDy=0;" parent="1" source="2hTFmVIW4Jd26uyD2nNo-8" target="2hTFmVIW4Jd26uyD2nNo-13" edge="1">
          <mxGeometry width="50" height="50" relative="1" as="geometry">
            <mxPoint x="570" y="400" as="sourcePoint" />
            <mxPoint x="620" y="350" as="targetPoint" />
          </mxGeometry>
        </mxCell>
        <mxCell id="2hTFmVIW4Jd26uyD2nNo-18" value="" style="endArrow=none;html=1;rounded=0;exitX=1;exitY=0.5;exitDx=0;exitDy=0;" parent="1" source="2hTFmVIW4Jd26uyD2nNo-5" edge="1">
          <mxGeometry width="50" height="50" relative="1" as="geometry">
            <mxPoint x="570" y="300" as="sourcePoint" />
            <mxPoint x="500" y="240" as="targetPoint" />
            <Array as="points">
              <mxPoint x="500" y="210" />
            </Array>
          </mxGeometry>
        </mxCell>
        <mxCell id="2hTFmVIW4Jd26uyD2nNo-19" value="diagonalsMinMax(int mat[10][10])" style="ellipse;whiteSpace=wrap;html=1;fontSize=11;" parent="1" vertex="1">
          <mxGeometry x="240" y="-1160" width="160" height="70" as="geometry" />
        </mxCell>
        <mxCell id="Lktk6TPZVvL7QRdFnqv--3" value="col1=0" style="rounded=0;whiteSpace=wrap;html=1;" parent="1" vertex="1">
          <mxGeometry x="240" y="-980" width="160" height="60" as="geometry" />
        </mxCell>
        <mxCell id="Lktk6TPZVvL7QRdFnqv--4" value="" style="endArrow=none;html=1;rounded=0;entryX=0.5;entryY=1;entryDx=0;entryDy=0;" parent="1" target="Lktk6TPZVvL7QRdFnqv--3" edge="1">
          <mxGeometry width="50" height="50" relative="1" as="geometry">
            <mxPoint x="320" y="-890" as="sourcePoint" />
            <mxPoint x="60" y="-830" as="targetPoint" />
          </mxGeometry>
        </mxCell>
        <mxCell id="Lktk6TPZVvL7QRdFnqv--5" value="row2=0" style="rounded=0;whiteSpace=wrap;html=1;" parent="1" vertex="1">
          <mxGeometry x="240" y="-890" width="160" height="60" as="geometry" />
        </mxCell>
        <mxCell id="Lktk6TPZVvL7QRdFnqv--6" value="" style="endArrow=none;html=1;rounded=0;entryX=0.5;entryY=1;entryDx=0;entryDy=0;" parent="1" target="Lktk6TPZVvL7QRdFnqv--5" edge="1">
          <mxGeometry width="50" height="50" relative="1" as="geometry">
            <mxPoint x="320" y="-780" as="sourcePoint" />
            <mxPoint x="140" y="-730" as="targetPoint" />
          </mxGeometry>
        </mxCell>
        <mxCell id="Lktk6TPZVvL7QRdFnqv--7" value="row1=0" style="rounded=0;whiteSpace=wrap;html=1;" parent="1" vertex="1">
          <mxGeometry x="240" y="-1070" width="160" height="60" as="geometry" />
        </mxCell>
        <mxCell id="Lktk6TPZVvL7QRdFnqv--8" value="" style="endArrow=none;html=1;rounded=0;entryX=0.5;entryY=1;entryDx=0;entryDy=0;exitX=0.5;exitY=0;exitDx=0;exitDy=0;" parent="1" source="Lktk6TPZVvL7QRdFnqv--3" target="Lktk6TPZVvL7QRdFnqv--7" edge="1">
          <mxGeometry width="50" height="50" relative="1" as="geometry">
            <mxPoint x="220" y="-980" as="sourcePoint" />
            <mxPoint x="40" y="-930" as="targetPoint" />
          </mxGeometry>
        </mxCell>
        <mxCell id="Lktk6TPZVvL7QRdFnqv--11" value="col2=0" style="rounded=0;whiteSpace=wrap;html=1;" parent="1" vertex="1">
          <mxGeometry x="240" y="-800" width="160" height="60" as="geometry" />
        </mxCell>
        <mxCell id="GRMUkdLbaHXz7lRbPsnw-1" value="" style="endArrow=none;html=1;rounded=0;entryX=0.5;entryY=1;entryDx=0;entryDy=0;exitX=0.5;exitY=0;exitDx=0;exitDy=0;" parent="1" source="Lktk6TPZVvL7QRdFnqv--7" target="2hTFmVIW4Jd26uyD2nNo-19" edge="1">
          <mxGeometry width="50" height="50" relative="1" as="geometry">
            <mxPoint x="410" y="-890" as="sourcePoint" />
            <mxPoint x="460" y="-940" as="targetPoint" />
          </mxGeometry>
        </mxCell>
        <mxCell id="GRMUkdLbaHXz7lRbPsnw-2" value="" style="endArrow=none;html=1;rounded=0;exitX=0.5;exitY=1;exitDx=0;exitDy=0;entryX=0.5;entryY=0;entryDx=0;entryDy=0;" parent="1" source="Lktk6TPZVvL7QRdFnqv--11" edge="1">
          <mxGeometry width="50" height="50" relative="1" as="geometry">
            <mxPoint x="410" y="-790" as="sourcePoint" />
            <mxPoint x="320" y="-710" as="targetPoint" />
          </mxGeometry>
        </mxCell>
        <mxCell id="sndM1sh_EYcWGzedrm4O-5" value="secondaryMin = mat[n - 1][0]" style="rounded=0;whiteSpace=wrap;html=1;" parent="1" vertex="1">
          <mxGeometry x="240" y="-615" width="160" height="60" as="geometry" />
        </mxCell>
        <mxCell id="sndM1sh_EYcWGzedrm4O-6" value="principalMax = mat[0][0]" style="rounded=0;whiteSpace=wrap;html=1;" parent="1" vertex="1">
          <mxGeometry x="240" y="-705" width="160" height="60" as="geometry" />
        </mxCell>
        <mxCell id="sndM1sh_EYcWGzedrm4O-7" value="" style="endArrow=none;html=1;rounded=0;exitX=0.5;exitY=1;exitDx=0;exitDy=0;entryX=0.5;entryY=0;entryDx=0;entryDy=0;" parent="1" source="sndM1sh_EYcWGzedrm4O-6" target="sndM1sh_EYcWGzedrm4O-5" edge="1">
          <mxGeometry width="50" height="50" relative="1" as="geometry">
            <mxPoint x="410" y="-725" as="sourcePoint" />
            <mxPoint x="460" y="-775" as="targetPoint" />
          </mxGeometry>
        </mxCell>
        <mxCell id="sndM1sh_EYcWGzedrm4O-8" value="" style="endArrow=none;html=1;rounded=0;exitX=0.5;exitY=0;exitDx=0;exitDy=0;" parent="1" source="sndM1sh_EYcWGzedrm4O-6" edge="1">
          <mxGeometry width="50" height="50" relative="1" as="geometry">
            <mxPoint x="100" y="-570" as="sourcePoint" />
            <mxPoint x="320" y="-720" as="targetPoint" />
          </mxGeometry>
        </mxCell>
        <mxCell id="b7NBwk-AkZfB3AFS1rDW-1" value="i==j" style="rhombus;whiteSpace=wrap;html=1;" parent="1" vertex="1">
          <mxGeometry x="240" y="440" width="160" height="60" as="geometry" />
        </mxCell>
        <mxCell id="b7NBwk-AkZfB3AFS1rDW-2" value="mat[i][j] &amp;gt; principalMax" style="rhombus;whiteSpace=wrap;html=1;" parent="1" vertex="1">
          <mxGeometry x="240" y="520" width="160" height="60" as="geometry" />
        </mxCell>
        <mxCell id="b7NBwk-AkZfB3AFS1rDW-3" value="" style="rounded=0;whiteSpace=wrap;html=1;" parent="1" vertex="1">
          <mxGeometry x="240" y="790" width="160" height="60" as="geometry" />
        </mxCell>
        <mxCell id="b7NBwk-AkZfB3AFS1rDW-4" value="&amp;nbsp;col1 = j" style="text;html=1;strokeColor=none;fillColor=none;align=center;verticalAlign=middle;whiteSpace=wrap;rounded=0;" parent="1" vertex="1">
          <mxGeometry x="290" y="805" width="60" height="30" as="geometry" />
        </mxCell>
        <mxCell id="b7NBwk-AkZfB3AFS1rDW-5" value="row1 = i" style="rounded=0;whiteSpace=wrap;html=1;" parent="1" vertex="1">
          <mxGeometry x="240" y="700" width="160" height="60" as="geometry" />
        </mxCell>
        <mxCell id="b7NBwk-AkZfB3AFS1rDW-6" value="principalMax = mat[i][j]" style="rounded=0;whiteSpace=wrap;html=1;" parent="1" vertex="1">
          <mxGeometry x="240" y="610" width="160" height="60" as="geometry" />
        </mxCell>
        <mxCell id="b7NBwk-AkZfB3AFS1rDW-7" value="" style="endArrow=none;html=1;rounded=0;exitX=0.5;exitY=1;exitDx=0;exitDy=0;entryX=0.5;entryY=0;entryDx=0;entryDy=0;" parent="1" source="b7NBwk-AkZfB3AFS1rDW-6" target="b7NBwk-AkZfB3AFS1rDW-5" edge="1">
          <mxGeometry width="50" height="50" relative="1" as="geometry">
            <mxPoint x="410" y="650" as="sourcePoint" />
            <mxPoint x="460" y="600" as="targetPoint" />
          </mxGeometry>
        </mxCell>
        <mxCell id="b7NBwk-AkZfB3AFS1rDW-8" value="" style="endArrow=none;html=1;rounded=0;entryX=1;entryY=0.5;entryDx=0;entryDy=0;" parent="1" target="b7NBwk-AkZfB3AFS1rDW-1" edge="1">
          <mxGeometry width="50" height="50" relative="1" as="geometry">
            <mxPoint x="320" y="880" as="sourcePoint" />
            <mxPoint x="460" y="700" as="targetPoint" />
            <Array as="points">
              <mxPoint x="450" y="880" />
              <mxPoint x="450" y="470" />
            </Array>
          </mxGeometry>
        </mxCell>
        <mxCell id="b7NBwk-AkZfB3AFS1rDW-9" value="False" style="text;html=1;strokeColor=none;fillColor=none;align=center;verticalAlign=middle;whiteSpace=wrap;rounded=0;" parent="1" vertex="1">
          <mxGeometry x="390" y="440" width="60" height="30" as="geometry" />
        </mxCell>
        <mxCell id="b7NBwk-AkZfB3AFS1rDW-10" value="" style="endArrow=none;html=1;rounded=0;entryX=1;entryY=0.5;entryDx=0;entryDy=0;" parent="1" target="b7NBwk-AkZfB3AFS1rDW-2" edge="1">
          <mxGeometry width="50" height="50" relative="1" as="geometry">
            <mxPoint x="320" y="860" as="sourcePoint" />
            <mxPoint x="460" y="700" as="targetPoint" />
            <Array as="points">
              <mxPoint x="420" y="860" />
              <mxPoint x="420" y="550" />
            </Array>
          </mxGeometry>
        </mxCell>
        <mxCell id="b7NBwk-AkZfB3AFS1rDW-11" value="(i + j) == (n - 1)" style="rhombus;whiteSpace=wrap;html=1;" parent="1" vertex="1">
          <mxGeometry x="240" y="900" width="160" height="60" as="geometry" />
        </mxCell>
        <mxCell id="b7NBwk-AkZfB3AFS1rDW-12" value="mat[i][j] &amp;lt; secondaryMin" style="rhombus;whiteSpace=wrap;html=1;" parent="1" vertex="1">
          <mxGeometry x="240" y="980" width="160" height="60" as="geometry" />
        </mxCell>
        <mxCell id="b7NBwk-AkZfB3AFS1rDW-13" value="" style="rounded=0;whiteSpace=wrap;html=1;" parent="1" vertex="1">
          <mxGeometry x="240" y="1250" width="160" height="60" as="geometry" />
        </mxCell>
        <mxCell id="b7NBwk-AkZfB3AFS1rDW-14" value="&amp;nbsp;col2 = j" style="text;html=1;strokeColor=none;fillColor=none;align=center;verticalAlign=middle;whiteSpace=wrap;rounded=0;" parent="1" vertex="1">
          <mxGeometry x="290" y="1260" width="60" height="30" as="geometry" />
        </mxCell>
        <mxCell id="b7NBwk-AkZfB3AFS1rDW-15" value="row2 = i" style="rounded=0;whiteSpace=wrap;html=1;" parent="1" vertex="1">
          <mxGeometry x="240" y="1160" width="160" height="60" as="geometry" />
        </mxCell>
        <mxCell id="b7NBwk-AkZfB3AFS1rDW-16" value="&amp;nbsp;secondaryMin = mat[i][j]" style="rounded=0;whiteSpace=wrap;html=1;" parent="1" vertex="1">
          <mxGeometry x="240" y="1070" width="160" height="60" as="geometry" />
        </mxCell>
        <mxCell id="b7NBwk-AkZfB3AFS1rDW-17" value="" style="endArrow=none;html=1;rounded=0;exitX=0.5;exitY=1;exitDx=0;exitDy=0;entryX=0.5;entryY=0;entryDx=0;entryDy=0;" parent="1" source="b7NBwk-AkZfB3AFS1rDW-16" target="b7NBwk-AkZfB3AFS1rDW-15" edge="1">
          <mxGeometry width="50" height="50" relative="1" as="geometry">
            <mxPoint x="410" y="1100" as="sourcePoint" />
            <mxPoint x="460" y="1050" as="targetPoint" />
          </mxGeometry>
        </mxCell>
        <mxCell id="b7NBwk-AkZfB3AFS1rDW-18" value="" style="endArrow=none;html=1;rounded=0;entryX=1;entryY=0.5;entryDx=0;entryDy=0;" parent="1" target="b7NBwk-AkZfB3AFS1rDW-11" edge="1">
          <mxGeometry width="50" height="50" relative="1" as="geometry">
            <mxPoint x="320" y="1340" as="sourcePoint" />
            <mxPoint x="460" y="1150" as="targetPoint" />
            <Array as="points">
              <mxPoint x="450" y="1340" />
              <mxPoint x="450" y="930" />
            </Array>
          </mxGeometry>
        </mxCell>
        <mxCell id="b7NBwk-AkZfB3AFS1rDW-19" value="False" style="text;html=1;strokeColor=none;fillColor=none;align=center;verticalAlign=middle;whiteSpace=wrap;rounded=0;" parent="1" vertex="1">
          <mxGeometry x="390" y="900" width="60" height="30" as="geometry" />
        </mxCell>
        <mxCell id="b7NBwk-AkZfB3AFS1rDW-20" value="" style="endArrow=none;html=1;rounded=0;entryX=1;entryY=0.5;entryDx=0;entryDy=0;" parent="1" target="b7NBwk-AkZfB3AFS1rDW-12" edge="1">
          <mxGeometry width="50" height="50" relative="1" as="geometry">
            <mxPoint x="320" y="1320" as="sourcePoint" />
            <mxPoint x="460" y="1150" as="targetPoint" />
            <Array as="points">
              <mxPoint x="420" y="1320" />
              <mxPoint x="420" y="1010" />
            </Array>
          </mxGeometry>
        </mxCell>
        <mxCell id="b7NBwk-AkZfB3AFS1rDW-21" value="False" style="text;html=1;strokeColor=none;fillColor=none;align=center;verticalAlign=middle;whiteSpace=wrap;rounded=0;" parent="1" vertex="1">
          <mxGeometry x="384" y="980" width="60" height="30" as="geometry" />
        </mxCell>
        <mxCell id="b7NBwk-AkZfB3AFS1rDW-22" value="False" style="text;html=1;strokeColor=none;fillColor=none;align=center;verticalAlign=middle;whiteSpace=wrap;rounded=0;" parent="1" vertex="1">
          <mxGeometry x="384" y="520" width="60" height="30" as="geometry" />
        </mxCell>
        <mxCell id="Leeo29-UV5tU7Llp6UDY-1" value="&lt;font style=&quot;font-size: 18px;&quot;&gt;Б&lt;/font&gt;" style="ellipse;whiteSpace=wrap;html=1;aspect=fixed;" parent="1" vertex="1">
          <mxGeometry x="475" y="235" width="50" height="50" as="geometry" />
        </mxCell>
        <mxCell id="8o3utWWZym2oFUkDSREI-1" value="principalMax" style="shape=parallelogram;perimeter=parallelogramPerimeter;whiteSpace=wrap;html=1;fixedSize=1;" parent="1" vertex="1">
          <mxGeometry x="750" y="-1060" width="160" height="60" as="geometry" />
        </mxCell>
        <mxCell id="8o3utWWZym2oFUkDSREI-3" value="row1+1" style="shape=parallelogram;perimeter=parallelogramPerimeter;whiteSpace=wrap;html=1;fixedSize=1;" parent="1" vertex="1">
          <mxGeometry x="750" y="-970" width="160" height="60" as="geometry" />
        </mxCell>
        <mxCell id="8o3utWWZym2oFUkDSREI-4" value="col1+1" style="shape=parallelogram;perimeter=parallelogramPerimeter;whiteSpace=wrap;html=1;fixedSize=1;" parent="1" vertex="1">
          <mxGeometry x="750" y="-880" width="160" height="60" as="geometry" />
        </mxCell>
        <mxCell id="8o3utWWZym2oFUkDSREI-5" value="row2 + 1" style="shape=parallelogram;perimeter=parallelogramPerimeter;whiteSpace=wrap;html=1;fixedSize=1;" parent="1" vertex="1">
          <mxGeometry x="750" y="-700" width="160" height="60" as="geometry" />
        </mxCell>
        <mxCell id="8o3utWWZym2oFUkDSREI-6" value="secondaryMin" style="shape=parallelogram;perimeter=parallelogramPerimeter;whiteSpace=wrap;html=1;fixedSize=1;" parent="1" vertex="1">
          <mxGeometry x="750" y="-790" width="160" height="60" as="geometry" />
        </mxCell>
        <mxCell id="8o3utWWZym2oFUkDSREI-7" value="col2+1" style="shape=parallelogram;perimeter=parallelogramPerimeter;whiteSpace=wrap;html=1;fixedSize=1;" parent="1" vertex="1">
          <mxGeometry x="750" y="-610" width="160" height="60" as="geometry" />
        </mxCell>
        <mxCell id="8o3utWWZym2oFUkDSREI-8" value="" style="endArrow=none;html=1;rounded=0;fontSize=18;entryX=0.5;entryY=1;entryDx=0;entryDy=0;exitX=0.5;exitY=0;exitDx=0;exitDy=0;" parent="1" source="8o3utWWZym2oFUkDSREI-1" edge="1">
          <mxGeometry width="50" height="50" relative="1" as="geometry">
            <mxPoint x="630" y="-780" as="sourcePoint" />
            <mxPoint x="830" y="-1080" as="targetPoint" />
          </mxGeometry>
        </mxCell>
        <mxCell id="8o3utWWZym2oFUkDSREI-9" value="" style="endArrow=none;html=1;rounded=0;fontSize=18;entryX=0.5;entryY=1;entryDx=0;entryDy=0;" parent="1" source="8o3utWWZym2oFUkDSREI-3" target="8o3utWWZym2oFUkDSREI-1" edge="1">
          <mxGeometry width="50" height="50" relative="1" as="geometry">
            <mxPoint x="640" y="-770" as="sourcePoint" />
            <mxPoint x="690" y="-820" as="targetPoint" />
          </mxGeometry>
        </mxCell>
        <mxCell id="8o3utWWZym2oFUkDSREI-10" value="" style="endArrow=none;html=1;rounded=0;fontSize=18;entryX=0.5;entryY=1;entryDx=0;entryDy=0;exitX=0.5;exitY=0;exitDx=0;exitDy=0;" parent="1" source="8o3utWWZym2oFUkDSREI-4" target="8o3utWWZym2oFUkDSREI-3" edge="1">
          <mxGeometry width="50" height="50" relative="1" as="geometry">
            <mxPoint x="650" y="-760" as="sourcePoint" />
            <mxPoint x="700" y="-810" as="targetPoint" />
          </mxGeometry>
        </mxCell>
        <mxCell id="8o3utWWZym2oFUkDSREI-11" value="" style="endArrow=none;html=1;rounded=0;fontSize=18;entryX=0.5;entryY=1;entryDx=0;entryDy=0;exitX=0.5;exitY=0;exitDx=0;exitDy=0;" parent="1" source="8o3utWWZym2oFUkDSREI-6" target="8o3utWWZym2oFUkDSREI-4" edge="1">
          <mxGeometry width="50" height="50" relative="1" as="geometry">
            <mxPoint x="660" y="-750" as="sourcePoint" />
            <mxPoint x="710" y="-800" as="targetPoint" />
          </mxGeometry>
        </mxCell>
        <mxCell id="8o3utWWZym2oFUkDSREI-12" value="" style="endArrow=none;html=1;rounded=0;fontSize=18;entryX=0.5;entryY=1;entryDx=0;entryDy=0;exitX=0.5;exitY=0;exitDx=0;exitDy=0;" parent="1" source="8o3utWWZym2oFUkDSREI-5" target="8o3utWWZym2oFUkDSREI-6" edge="1">
          <mxGeometry width="50" height="50" relative="1" as="geometry">
            <mxPoint x="830" y="-740" as="sourcePoint" />
            <mxPoint x="720" y="-790" as="targetPoint" />
          </mxGeometry>
        </mxCell>
        <mxCell id="8o3utWWZym2oFUkDSREI-13" value="" style="endArrow=none;html=1;rounded=0;fontSize=18;entryX=0.5;entryY=1;entryDx=0;entryDy=0;exitX=0.5;exitY=0;exitDx=0;exitDy=0;" parent="1" source="8o3utWWZym2oFUkDSREI-7" target="8o3utWWZym2oFUkDSREI-5" edge="1">
          <mxGeometry width="50" height="50" relative="1" as="geometry">
            <mxPoint x="650" y="-730" as="sourcePoint" />
            <mxPoint x="830" y="-670" as="targetPoint" />
          </mxGeometry>
        </mxCell>
        <mxCell id="8o3utWWZym2oFUkDSREI-15" value="mat[row1][col1] = secondaryMin" style="rounded=0;whiteSpace=wrap;html=1;" parent="1" vertex="1">
          <mxGeometry x="750" y="-520" width="160" height="60" as="geometry" />
        </mxCell>
        <mxCell id="8o3utWWZym2oFUkDSREI-16" value="" style="endArrow=none;html=1;rounded=0;entryX=0.5;entryY=1;entryDx=0;entryDy=0;" parent="1" target="8o3utWWZym2oFUkDSREI-15" edge="1">
          <mxGeometry width="50" height="50" relative="1" as="geometry">
            <mxPoint x="830" y="-460" as="sourcePoint" />
            <mxPoint x="570" y="-400" as="targetPoint" />
          </mxGeometry>
        </mxCell>
        <mxCell id="8o3utWWZym2oFUkDSREI-17" value="mat[row2][col2] = principalMax" style="rounded=0;whiteSpace=wrap;html=1;" parent="1" vertex="1">
          <mxGeometry x="750" y="-430" width="160" height="60" as="geometry" />
        </mxCell>
        <mxCell id="cLu_jMCLYZbF65N6poqY-1" value="&lt;font style=&quot;font-size: 11px;&quot;&gt;printMatrix(matrix)&lt;/font&gt;" style="shape=process;whiteSpace=wrap;html=1;backgroundOutline=1;fontSize=18;" parent="1" vertex="1">
          <mxGeometry x="750" y="-340" width="160" height="60" as="geometry" />
        </mxCell>
        <mxCell id="cLu_jMCLYZbF65N6poqY-2" value="" style="endArrow=none;html=1;rounded=0;fontSize=18;entryX=0.5;entryY=1;entryDx=0;entryDy=0;exitX=0.5;exitY=0;exitDx=0;exitDy=0;" parent="1" source="cLu_jMCLYZbF65N6poqY-1" target="8o3utWWZym2oFUkDSREI-17" edge="1">
          <mxGeometry width="50" height="50" relative="1" as="geometry">
            <mxPoint x="630" y="-360" as="sourcePoint" />
            <mxPoint x="680" y="-410" as="targetPoint" />
          </mxGeometry>
        </mxCell>
        <mxCell id="tYCHnve2uITkks0oR1TV-1" value="Конец" style="ellipse;whiteSpace=wrap;html=1;fontSize=11;" parent="1" vertex="1">
          <mxGeometry x="750" y="-250" width="160" height="70" as="geometry" />
        </mxCell>
        <mxCell id="tYCHnve2uITkks0oR1TV-2" value="" style="endArrow=none;html=1;rounded=0;fontSize=18;entryX=0.5;entryY=1;entryDx=0;entryDy=0;exitX=0.5;exitY=0;exitDx=0;exitDy=0;" parent="1" source="tYCHnve2uITkks0oR1TV-1" target="cLu_jMCLYZbF65N6poqY-1" edge="1">
          <mxGeometry width="50" height="50" relative="1" as="geometry">
            <mxPoint x="590" y="-290" as="sourcePoint" />
            <mxPoint x="640" y="-340" as="targetPoint" />
          </mxGeometry>
        </mxCell>
        <mxCell id="92BY0_Hq3rwU_t9wkq49-1" value="20" style="text;whiteSpace=wrap;html=1;fontSize=14;" parent="1" vertex="1">
          <mxGeometry x="240" y="-1100" width="40" height="40" as="geometry" />
        </mxCell>
        <mxCell id="92BY0_Hq3rwU_t9wkq49-2" value="&lt;div style=&quot;text-align: center;&quot;&gt;22&lt;/div&gt;" style="text;whiteSpace=wrap;html=1;fontSize=14;" parent="1" vertex="1">
          <mxGeometry x="240" y="-920" width="40" height="40" as="geometry" />
        </mxCell>
        <mxCell id="92BY0_Hq3rwU_t9wkq49-8" value="" style="endArrow=none;html=1;rounded=0;fontSize=14;exitX=0.5;exitY=1;exitDx=0;exitDy=0;entryX=0.5;entryY=0;entryDx=0;entryDy=0;" parent="1" target="2hTFmVIW4Jd26uyD2nNo-1" edge="1">
          <mxGeometry width="50" height="50" relative="1" as="geometry">
            <mxPoint x="320" y="50" as="sourcePoint" />
            <mxPoint x="680" y="100" as="targetPoint" />
          </mxGeometry>
        </mxCell>
        <mxCell id="92BY0_Hq3rwU_t9wkq49-9" value="&lt;div style=&quot;text-align: center;&quot;&gt;21&lt;/div&gt;" style="text;whiteSpace=wrap;html=1;fontSize=14;" parent="1" vertex="1">
          <mxGeometry x="240" y="-1010" width="40" height="40" as="geometry" />
        </mxCell>
        <mxCell id="92BY0_Hq3rwU_t9wkq49-10" value="&lt;div style=&quot;text-align: center;&quot;&gt;&lt;span style=&quot;background-color: initial;&quot;&gt;23&lt;/span&gt;&lt;/div&gt;" style="text;whiteSpace=wrap;html=1;fontSize=14;" parent="1" vertex="1">
          <mxGeometry x="240" y="-830" width="40" height="40" as="geometry" />
        </mxCell>
        <mxCell id="92BY0_Hq3rwU_t9wkq49-13" value="&lt;div style=&quot;text-align: center;&quot;&gt;&lt;span style=&quot;background-color: initial;&quot;&gt;24&lt;/span&gt;&lt;/div&gt;" style="text;whiteSpace=wrap;html=1;fontSize=14;" parent="1" vertex="1">
          <mxGeometry x="240" y="-730" width="40" height="40" as="geometry" />
        </mxCell>
        <mxCell id="92BY0_Hq3rwU_t9wkq49-14" value="&lt;div style=&quot;text-align: center;&quot;&gt;&lt;span style=&quot;background-color: initial;&quot;&gt;25&lt;/span&gt;&lt;/div&gt;" style="text;whiteSpace=wrap;html=1;fontSize=14;" parent="1" vertex="1">
          <mxGeometry x="240" y="-645" width="40" height="40" as="geometry" />
        </mxCell>
        <mxCell id="92BY0_Hq3rwU_t9wkq49-15" value="&lt;div style=&quot;text-align: center;&quot;&gt;&lt;span style=&quot;background-color: initial;&quot;&gt;26&lt;/span&gt;&lt;/div&gt;" style="text;whiteSpace=wrap;html=1;fontSize=14;" parent="1" vertex="1">
          <mxGeometry x="240" y="55" width="40" height="40" as="geometry" />
        </mxCell>
        <mxCell id="92BY0_Hq3rwU_t9wkq49-16" value="&lt;div style=&quot;text-align: center;&quot;&gt;&lt;span style=&quot;background-color: initial;&quot;&gt;27&lt;/span&gt;&lt;/div&gt;" style="text;whiteSpace=wrap;html=1;fontSize=14;" parent="1" vertex="1">
          <mxGeometry x="240" y="180" width="40" height="40" as="geometry" />
        </mxCell>
        <mxCell id="92BY0_Hq3rwU_t9wkq49-17" value="28" style="text;whiteSpace=wrap;html=1;fontSize=14;" parent="1" vertex="1">
          <mxGeometry x="240" y="230" width="40" height="40" as="geometry" />
        </mxCell>
        <mxCell id="92BY0_Hq3rwU_t9wkq49-18" value="29" style="text;whiteSpace=wrap;html=1;fontSize=14;" parent="1" vertex="1">
          <mxGeometry x="240" y="350" width="40" height="40" as="geometry" />
        </mxCell>
        <mxCell id="92BY0_Hq3rwU_t9wkq49-19" value="30" style="text;whiteSpace=wrap;html=1;fontSize=14;" parent="1" vertex="1">
          <mxGeometry x="240" y="440" width="40" height="40" as="geometry" />
        </mxCell>
        <mxCell id="92BY0_Hq3rwU_t9wkq49-21" value="31" style="text;whiteSpace=wrap;html=1;fontSize=14;" parent="1" vertex="1">
          <mxGeometry x="240" y="520" width="40" height="270" as="geometry" />
        </mxCell>
        <mxCell id="92BY0_Hq3rwU_t9wkq49-22" value="32" style="text;whiteSpace=wrap;html=1;fontSize=14;" parent="1" vertex="1">
          <mxGeometry x="240" y="580" width="40" height="270" as="geometry" />
        </mxCell>
        <mxCell id="92BY0_Hq3rwU_t9wkq49-23" value="33" style="text;whiteSpace=wrap;html=1;fontSize=14;" parent="1" vertex="1">
          <mxGeometry x="240" y="670" width="40" height="270" as="geometry" />
        </mxCell>
        <mxCell id="92BY0_Hq3rwU_t9wkq49-25" value="34" style="text;whiteSpace=wrap;html=1;fontSize=14;" parent="1" vertex="1">
          <mxGeometry x="240" y="760" width="40" height="270" as="geometry" />
        </mxCell>
        <mxCell id="92BY0_Hq3rwU_t9wkq49-26" value="35" style="text;whiteSpace=wrap;html=1;fontSize=14;" parent="1" vertex="1">
          <mxGeometry x="240" y="900" width="40" height="270" as="geometry" />
        </mxCell>
        <mxCell id="92BY0_Hq3rwU_t9wkq49-27" value="36" style="text;whiteSpace=wrap;html=1;fontSize=14;" parent="1" vertex="1">
          <mxGeometry x="240" y="980" width="40" height="270" as="geometry" />
        </mxCell>
        <mxCell id="92BY0_Hq3rwU_t9wkq49-28" value="37" style="text;whiteSpace=wrap;html=1;fontSize=14;" parent="1" vertex="1">
          <mxGeometry x="240" y="1040" width="40" height="270" as="geometry" />
        </mxCell>
        <mxCell id="92BY0_Hq3rwU_t9wkq49-29" value="38" style="text;whiteSpace=wrap;html=1;fontSize=14;" parent="1" vertex="1">
          <mxGeometry x="240" y="1130" width="50" height="220" as="geometry" />
        </mxCell>
        <mxCell id="92BY0_Hq3rwU_t9wkq49-30" value="39" style="text;whiteSpace=wrap;html=1;fontSize=14;" parent="1" vertex="1">
          <mxGeometry x="240" y="1220" width="40" height="90" as="geometry" />
        </mxCell>
        <mxCell id="92BY0_Hq3rwU_t9wkq49-34" value="41" style="text;whiteSpace=wrap;html=1;fontSize=14;" parent="1" vertex="1">
          <mxGeometry x="420" y="320" width="40" height="40" as="geometry" />
        </mxCell>
        <mxCell id="92BY0_Hq3rwU_t9wkq49-35" value="&lt;div style=&quot;text-align: center;&quot;&gt;42&lt;/div&gt;" style="text;whiteSpace=wrap;html=1;fontSize=14;" parent="1" vertex="1">
          <mxGeometry x="760" y="-1090" width="40" height="40" as="geometry" />
        </mxCell>
        <mxCell id="92BY0_Hq3rwU_t9wkq49-38" value="" style="endArrow=none;html=1;rounded=0;fontSize=14;entryX=0.5;entryY=1;entryDx=0;entryDy=0;exitX=0.5;exitY=0;exitDx=0;exitDy=0;" parent="1" source="8o3utWWZym2oFUkDSREI-15" target="8o3utWWZym2oFUkDSREI-7" edge="1">
          <mxGeometry width="50" height="50" relative="1" as="geometry">
            <mxPoint x="620" y="-410" as="sourcePoint" />
            <mxPoint x="670" y="-460" as="targetPoint" />
          </mxGeometry>
        </mxCell>
        <mxCell id="92BY0_Hq3rwU_t9wkq49-39" value="" style="endArrow=none;html=1;rounded=0;fontSize=14;entryX=0.5;entryY=1;entryDx=0;entryDy=0;exitX=0.5;exitY=0;exitDx=0;exitDy=0;" parent="1" source="8o3utWWZym2oFUkDSREI-17" target="8o3utWWZym2oFUkDSREI-15" edge="1">
          <mxGeometry width="50" height="50" relative="1" as="geometry">
            <mxPoint x="630" y="-400" as="sourcePoint" />
            <mxPoint x="680" y="-450" as="targetPoint" />
          </mxGeometry>
        </mxCell>
        <mxCell id="92BY0_Hq3rwU_t9wkq49-40" value="&lt;div style=&quot;text-align: center;&quot;&gt;43&lt;/div&gt;" style="text;whiteSpace=wrap;html=1;fontSize=14;" parent="1" vertex="1">
          <mxGeometry x="760" y="-1000" width="40" height="40" as="geometry" />
        </mxCell>
        <mxCell id="92BY0_Hq3rwU_t9wkq49-41" value="&lt;div style=&quot;text-align: center;&quot;&gt;44&lt;/div&gt;" style="text;whiteSpace=wrap;html=1;fontSize=14;" parent="1" vertex="1">
          <mxGeometry x="760" y="-910" width="40" height="40" as="geometry" />
        </mxCell>
        <mxCell id="92BY0_Hq3rwU_t9wkq49-42" value="&lt;div style=&quot;text-align: center;&quot;&gt;45&lt;/div&gt;" style="text;whiteSpace=wrap;html=1;fontSize=14;" parent="1" vertex="1">
          <mxGeometry x="760" y="-820" width="40" height="40" as="geometry" />
        </mxCell>
        <mxCell id="92BY0_Hq3rwU_t9wkq49-43" value="&lt;div style=&quot;text-align: center;&quot;&gt;46&lt;/div&gt;" style="text;whiteSpace=wrap;html=1;fontSize=14;" parent="1" vertex="1">
          <mxGeometry x="760" y="-730" width="40" height="40" as="geometry" />
        </mxCell>
        <mxCell id="92BY0_Hq3rwU_t9wkq49-44" value="&lt;div style=&quot;text-align: center;&quot;&gt;47&lt;/div&gt;" style="text;whiteSpace=wrap;html=1;fontSize=14;" parent="1" vertex="1">
          <mxGeometry x="760" y="-640" width="40" height="40" as="geometry" />
        </mxCell>
        <mxCell id="92BY0_Hq3rwU_t9wkq49-45" value="&lt;div style=&quot;text-align: center;&quot;&gt;48&lt;/div&gt;" style="text;whiteSpace=wrap;html=1;fontSize=14;" parent="1" vertex="1">
          <mxGeometry x="750" y="-550" width="40" height="40" as="geometry" />
        </mxCell>
        <mxCell id="92BY0_Hq3rwU_t9wkq49-46" value="&lt;div style=&quot;text-align: center;&quot;&gt;49&lt;/div&gt;" style="text;whiteSpace=wrap;html=1;fontSize=14;" parent="1" vertex="1">
          <mxGeometry x="750" y="-460" width="40" height="40" as="geometry" />
        </mxCell>
        <mxCell id="92BY0_Hq3rwU_t9wkq49-47" value="&lt;div style=&quot;text-align: center;&quot;&gt;50&lt;/div&gt;" style="text;whiteSpace=wrap;html=1;fontSize=14;" parent="1" vertex="1">
          <mxGeometry x="750" y="-370" width="40" height="40" as="geometry" />
        </mxCell>
        <mxCell id="sa4lOSgJlwVn5uOU_Saw-3" value="&lt;font style=&quot;font-size: 18px;&quot;&gt;Б&lt;/font&gt;" style="ellipse;whiteSpace=wrap;html=1;aspect=fixed;" parent="1" vertex="1">
          <mxGeometry x="805" y="-1130" width="50" height="50" as="geometry" />
        </mxCell>
        <mxCell id="6VzQykQAPCW5OItk4MTx-1" value="" style="endArrow=none;dashed=1;html=1;rounded=0;exitX=1;exitY=0.5;exitDx=0;exitDy=0;entryX=0;entryY=0.5;entryDx=0;entryDy=0;entryPerimeter=0;" parent="1" target="6VzQykQAPCW5OItk4MTx-2" edge="1">
          <mxGeometry width="50" height="50" relative="1" as="geometry">
            <mxPoint x="400" y="-1040" as="sourcePoint" />
            <mxPoint x="460" y="-1040" as="targetPoint" />
          </mxGeometry>
        </mxCell>
        <mxCell id="6VzQykQAPCW5OItk4MTx-2" value="" style="strokeWidth=2;html=1;shape=mxgraph.flowchart.annotation_1;align=left;pointerEvents=1;" parent="1" vertex="1">
          <mxGeometry x="439" y="-1062.5" width="10" height="45" as="geometry" />
        </mxCell>
        <mxCell id="6VzQykQAPCW5OItk4MTx-3" value="иницализация номера строки искомого элемента побочной диагонали (в массиве)" style="text;html=1;strokeColor=none;fillColor=none;align=center;verticalAlign=middle;whiteSpace=wrap;rounded=0;" parent="1" vertex="1">
          <mxGeometry x="439" y="-1055" width="170" height="30" as="geometry" />
        </mxCell>
        <mxCell id="6VzQykQAPCW5OItk4MTx-4" value="" style="endArrow=none;dashed=1;html=1;rounded=0;exitX=1;exitY=0.5;exitDx=0;exitDy=0;entryX=0;entryY=0.5;entryDx=0;entryDy=0;entryPerimeter=0;" parent="1" target="6VzQykQAPCW5OItk4MTx-5" edge="1">
          <mxGeometry width="50" height="50" relative="1" as="geometry">
            <mxPoint x="400" y="-950" as="sourcePoint" />
            <mxPoint x="460" y="-950" as="targetPoint" />
          </mxGeometry>
        </mxCell>
        <mxCell id="6VzQykQAPCW5OItk4MTx-5" value="" style="strokeWidth=2;html=1;shape=mxgraph.flowchart.annotation_1;align=left;pointerEvents=1;" parent="1" vertex="1">
          <mxGeometry x="439" y="-972.5" width="10" height="45" as="geometry" />
        </mxCell>
        <mxCell id="6VzQykQAPCW5OItk4MTx-6" value="иницализация номера столбца искомого элемента побочной диагонали (в массиве)" style="text;html=1;strokeColor=none;fillColor=none;align=center;verticalAlign=middle;whiteSpace=wrap;rounded=0;" parent="1" vertex="1">
          <mxGeometry x="439" y="-965" width="170" height="30" as="geometry" />
        </mxCell>
        <mxCell id="6VzQykQAPCW5OItk4MTx-13" value="" style="endArrow=none;dashed=1;html=1;rounded=0;exitX=1;exitY=0.5;exitDx=0;exitDy=0;entryX=0;entryY=0.5;entryDx=0;entryDy=0;entryPerimeter=0;" parent="1" target="6VzQykQAPCW5OItk4MTx-14" edge="1">
          <mxGeometry width="50" height="50" relative="1" as="geometry">
            <mxPoint x="400" y="-860" as="sourcePoint" />
            <mxPoint x="460" y="-860" as="targetPoint" />
          </mxGeometry>
        </mxCell>
        <mxCell id="6VzQykQAPCW5OItk4MTx-14" value="" style="strokeWidth=2;html=1;shape=mxgraph.flowchart.annotation_1;align=left;pointerEvents=1;" parent="1" vertex="1">
          <mxGeometry x="439" y="-882.5" width="10" height="45" as="geometry" />
        </mxCell>
        <mxCell id="6VzQykQAPCW5OItk4MTx-15" value="иницализация номера строки искомого элемента главной диагонали (в массиве)" style="text;html=1;strokeColor=none;fillColor=none;align=center;verticalAlign=middle;whiteSpace=wrap;rounded=0;" parent="1" vertex="1">
          <mxGeometry x="439" y="-875" width="170" height="30" as="geometry" />
        </mxCell>
        <mxCell id="6VzQykQAPCW5OItk4MTx-16" value="" style="endArrow=none;dashed=1;html=1;rounded=0;exitX=1;exitY=0.5;exitDx=0;exitDy=0;entryX=0;entryY=0.5;entryDx=0;entryDy=0;entryPerimeter=0;" parent="1" target="6VzQykQAPCW5OItk4MTx-17" edge="1">
          <mxGeometry width="50" height="50" relative="1" as="geometry">
            <mxPoint x="400" y="-770" as="sourcePoint" />
            <mxPoint x="460" y="-770" as="targetPoint" />
          </mxGeometry>
        </mxCell>
        <mxCell id="6VzQykQAPCW5OItk4MTx-17" value="" style="strokeWidth=2;html=1;shape=mxgraph.flowchart.annotation_1;align=left;pointerEvents=1;" parent="1" vertex="1">
          <mxGeometry x="439" y="-792.5" width="10" height="45" as="geometry" />
        </mxCell>
        <mxCell id="6VzQykQAPCW5OItk4MTx-18" value="иницализация номера столбца искомого элемента главной диагонали (в массиве)" style="text;html=1;strokeColor=none;fillColor=none;align=center;verticalAlign=middle;whiteSpace=wrap;rounded=0;" parent="1" vertex="1">
          <mxGeometry x="439" y="-785" width="170" height="30" as="geometry" />
        </mxCell>
        <mxCell id="6VzQykQAPCW5OItk4MTx-23" value="" style="endArrow=none;dashed=1;html=1;rounded=0;exitX=1;exitY=0.5;exitDx=0;exitDy=0;entryX=0;entryY=0.5;entryDx=0;entryDy=0;entryPerimeter=0;" parent="1" target="6VzQykQAPCW5OItk4MTx-24" edge="1">
          <mxGeometry width="50" height="50" relative="1" as="geometry">
            <mxPoint x="420" y="550" as="sourcePoint" />
            <mxPoint x="480" y="550" as="targetPoint" />
          </mxGeometry>
        </mxCell>
        <mxCell id="6VzQykQAPCW5OItk4MTx-24" value="" style="strokeWidth=2;html=1;shape=mxgraph.flowchart.annotation_1;align=left;pointerEvents=1;" parent="1" vertex="1">
          <mxGeometry x="510" y="527.5" width="10" height="45" as="geometry" />
        </mxCell>
        <mxCell id="6VzQykQAPCW5OItk4MTx-25" value="алгоритм поиска максимального элемента главной диагонали" style="text;html=1;strokeColor=none;fillColor=none;align=center;verticalAlign=middle;whiteSpace=wrap;rounded=0;" parent="1" vertex="1">
          <mxGeometry x="510" y="535" width="170" height="30" as="geometry" />
        </mxCell>
        <mxCell id="6VzQykQAPCW5OItk4MTx-26" value="" style="endArrow=none;dashed=1;html=1;rounded=0;exitX=1;exitY=0.5;exitDx=0;exitDy=0;entryX=0;entryY=0.5;entryDx=0;entryDy=0;entryPerimeter=0;" parent="1" target="6VzQykQAPCW5OItk4MTx-27" edge="1">
          <mxGeometry width="50" height="50" relative="1" as="geometry">
            <mxPoint x="420" y="1010" as="sourcePoint" />
            <mxPoint x="480" y="1010" as="targetPoint" />
          </mxGeometry>
        </mxCell>
        <mxCell id="6VzQykQAPCW5OItk4MTx-27" value="" style="strokeWidth=2;html=1;shape=mxgraph.flowchart.annotation_1;align=left;pointerEvents=1;" parent="1" vertex="1">
          <mxGeometry x="510" y="987.5" width="10" height="45" as="geometry" />
        </mxCell>
        <mxCell id="6VzQykQAPCW5OItk4MTx-28" value="алгоритм поиска минимального элемента побочной диагонали" style="text;html=1;strokeColor=none;fillColor=none;align=center;verticalAlign=middle;whiteSpace=wrap;rounded=0;" parent="1" vertex="1">
          <mxGeometry x="510" y="995" width="170" height="30" as="geometry" />
        </mxCell>
        <mxCell id="6VzQykQAPCW5OItk4MTx-30" value="" style="endArrow=none;dashed=1;html=1;rounded=0;exitX=1;exitY=0.5;exitDx=0;exitDy=0;entryX=0;entryY=0.5;entryDx=0;entryDy=0;entryPerimeter=0;" parent="1" target="6VzQykQAPCW5OItk4MTx-31" edge="1">
          <mxGeometry width="50" height="50" relative="1" as="geometry">
            <mxPoint x="900" y="-1027.5" as="sourcePoint" />
            <mxPoint x="960" y="-1027.5" as="targetPoint" />
          </mxGeometry>
        </mxCell>
        <mxCell id="6VzQykQAPCW5OItk4MTx-31" value="" style="strokeWidth=2;html=1;shape=mxgraph.flowchart.annotation_1;align=left;pointerEvents=1;" parent="1" vertex="1">
          <mxGeometry x="939" y="-1050" width="10" height="45" as="geometry" />
        </mxCell>
        <mxCell id="6VzQykQAPCW5OItk4MTx-32" value="вывод максимального элемента в главной диагонали" style="text;html=1;strokeColor=none;fillColor=none;align=center;verticalAlign=middle;whiteSpace=wrap;rounded=0;" parent="1" vertex="1">
          <mxGeometry x="930" y="-1040" width="170" height="30" as="geometry" />
        </mxCell>
        <mxCell id="6VzQykQAPCW5OItk4MTx-33" value="" style="endArrow=none;dashed=1;html=1;rounded=0;exitX=1;exitY=0.5;exitDx=0;exitDy=0;entryX=0;entryY=0.5;entryDx=0;entryDy=0;entryPerimeter=0;" parent="1" target="6VzQykQAPCW5OItk4MTx-34" edge="1">
          <mxGeometry width="50" height="50" relative="1" as="geometry">
            <mxPoint x="910" y="-487.5" as="sourcePoint" />
            <mxPoint x="970" y="-487.5" as="targetPoint" />
            <Array as="points">
              <mxPoint x="960" y="-487" />
              <mxPoint x="960" y="-440" />
              <mxPoint x="970" y="-440" />
            </Array>
          </mxGeometry>
        </mxCell>
        <mxCell id="6VzQykQAPCW5OItk4MTx-34" value="" style="strokeWidth=2;html=1;shape=mxgraph.flowchart.annotation_1;align=left;pointerEvents=1;" parent="1" vertex="1">
          <mxGeometry x="980" y="-462.5" width="10" height="45" as="geometry" />
        </mxCell>
        <mxCell id="6VzQykQAPCW5OItk4MTx-35" value="замена в массиве искомых элементов" style="text;html=1;strokeColor=none;fillColor=none;align=center;verticalAlign=middle;whiteSpace=wrap;rounded=0;" parent="1" vertex="1">
          <mxGeometry x="980" y="-455" width="120" height="30" as="geometry" />
        </mxCell>
        <mxCell id="6VzQykQAPCW5OItk4MTx-37" value="" style="endArrow=none;dashed=1;html=1;rounded=0;" parent="1" edge="1">
          <mxGeometry width="50" height="50" relative="1" as="geometry">
            <mxPoint x="960" y="-440" as="sourcePoint" />
            <mxPoint x="910" y="-400" as="targetPoint" />
            <Array as="points">
              <mxPoint x="960" y="-400" />
            </Array>
          </mxGeometry>
        </mxCell>
        <mxCell id="gI1dYJle-TmO6Ca70fIp-1" value="&lt;font style=&quot;font-size: 18px;&quot;&gt;A&lt;/font&gt;" style="ellipse;whiteSpace=wrap;html=1;aspect=fixed;" parent="1" vertex="1">
          <mxGeometry x="295" y="-535" width="50" height="50" as="geometry" />
        </mxCell>
        <mxCell id="gI1dYJle-TmO6Ca70fIp-2" value="" style="endArrow=none;html=1;rounded=0;exitX=0.5;exitY=1;exitDx=0;exitDy=0;entryX=0.5;entryY=0;entryDx=0;entryDy=0;" parent="1" source="sndM1sh_EYcWGzedrm4O-5" target="gI1dYJle-TmO6Ca70fIp-1" edge="1">
          <mxGeometry width="50" height="50" relative="1" as="geometry">
            <mxPoint x="560" y="-545" as="sourcePoint" />
            <mxPoint x="610" y="-595" as="targetPoint" />
          </mxGeometry>
        </mxCell>
        <mxCell id="gI1dYJle-TmO6Ca70fIp-3" value="&lt;font style=&quot;font-size: 18px;&quot;&gt;A&lt;/font&gt;" style="ellipse;whiteSpace=wrap;html=1;aspect=fixed;" parent="1" vertex="1">
          <mxGeometry x="295" y="10" width="50" height="50" as="geometry" />
        </mxCell>
        <mxCell id="x79DEbjAXxxhma9nWCE4-1" value="40" style="text;whiteSpace=wrap;html=1;fontSize=14;" parent="1" vertex="1">
          <mxGeometry x="240" y="1330" width="40" height="70" as="geometry" />
        </mxCell>
      </root>
    </mxGraphModel>
  </diagram>
</mxfile>
